<?xml version="1.0" standalone="no"?>
<!DOCTYPE svg PUBLIC "-//W3C//DTD SVG 1.1//EN" "http://www.w3.org/Graphics/SVG/1.1/DTD/svg11.dtd" >
<svg xmlns="http://www.w3.org/2000/svg" xmlns:xlink="http://www.w3.org/1999/xlink" version="1.1">
<metadata>
Created by FontForge 20161116 at Mon Jun 13 17:39:05 2011
 By Jimmy Warting
Designed by Christian Schwartz 2004?2010. Originally designed 1957-1961 by Max Miedinger with art direction by Eduard Hoffmann. Released as Neue Haas Grotesk by the Haas'sche Schriftgiesserei, and then revised and released as Helvetica by Linotype AG. Revival originally commissioned in 2004 by Mark Porter at The Guardian. Completed in 2010 for Richard Turley at Bloomberg Businessweek. Thinnest weight designed by Berton Hasebe.
</metadata>
<defs>
<font id="NeueHaasGroteskDisp-Regular" horiz-adv-x="622" >
  <font-face 
    font-family="NeueHaasGroteskDisp"
    font-weight="400"
    font-stretch="normal"
    units-per-em="1000"
    panose-1="2 0 6 3 0 0 0 2 0 3"
    ascent="800"
    descent="-200"
    x-height="517"
    cap-height="715"
    bbox="-178 -228 1129 916"
    underline-thickness="20"
    underline-position="-133"
    unicode-range="U+0020-FB02"
  />
<missing-glyph horiz-adv-x="159" 
 />
    <glyph glyph-name=".notdef" horiz-adv-x="159" 
 />
    <glyph glyph-name="space" unicode=" " horiz-adv-x="159" 
 />
    <glyph glyph-name="exclam" unicode="!" horiz-adv-x="235" 
d="M95 173l-22 313v229h89v-229l-22 -313h-45zM69 0v99h97v-99h-97z" />
    <glyph glyph-name="quotedbl" unicode="&#x22;" horiz-adv-x="297" 
d="M181 501v214h74v-214h-74zM42 501v214h74v-214h-74z" />
    <glyph glyph-name="numbersign" unicode="#" horiz-adv-x="579" 
d="M63 424l11 72h101l26 190h68l-26 -190h136l26 190h68l-26 -190h101l-11 -72h-100l-22 -154h100l-11 -72h-99l-27 -198h-68l27 198h-136l-27 -198h-68l27 198h-102l11 72h101l22 154h-102zM233 424l-22 -154h136l22 154h-136z" />
    <glyph glyph-name="dollar" unicode="$" horiz-adv-x="579" 
d="M263 -85v85c-173 11 -242 116 -247 231h84c9 -96 55 -152 163 -163v259c-123 27 -215 61 -215 188c0 111 87 182 215 187v55h56v-55c135 -11 199 -75 214 -183h-81c-9 68 -54 107 -133 116v-241c131 -27 230 -59 230 -195c0 -121 -99 -192 -230 -200v-84h-56zM467 196
c0 74 -52 97 -148 118v-247c80 5 148 52 148 129zM127 519c0 -64 43 -93 136 -114v231c-81 -7 -136 -46 -136 -117z" />
    <glyph glyph-name="percent" unicode="%" horiz-adv-x="813" 
d="M186 305c-96 0 -162 78 -162 198c0 122 70 198 162 198s160 -74 160 -198c0 -120 -64 -198 -160 -198zM629 -15c-96 0 -162 78 -162 198c0 122 70 198 162 198s160 -74 160 -198c0 -120 -64 -198 -160 -198zM176 0l393 685h68l-393 -685h-68zM186 365c57 0 86 58 86 138
c0 78 -30 138 -86 138s-86 -58 -86 -138c0 -78 30 -138 86 -138zM629 45c57 0 86 58 86 138c0 78 -30 138 -86 138s-86 -58 -86 -138c0 -78 30 -138 86 -138z" />
    <glyph glyph-name="ampersand" unicode="&#x26;" horiz-adv-x="587" 
d="M244 -14c-104 0 -205 74 -205 191c0 106 64 159 155 215l-20 26c-41 53 -55 95 -55 147c0 81 67 143 154 143c79 0 155 -49 155 -149c0 -87 -63 -136 -131 -179l142 -181c15 39 24 83 24 132h70c0 -68 -15 -136 -46 -193l108 -138h-97l-56 72c-48 -52 -114 -86 -198 -86z
M249 57c60 0 110 27 149 72l-164 211c-65 -43 -114 -83 -114 -163c0 -71 57 -120 129 -120zM195 564c0 -40 13 -69 44 -109l19 -25c63 40 92 75 92 131c0 49 -30 80 -77 80s-78 -30 -78 -77z" />
    <glyph glyph-name="quotesingle" unicode="'" horiz-adv-x="158" 
d="M42 501v214h74v-214h-74z" />
    <glyph glyph-name="parenleft" unicode="(" horiz-adv-x="304" 
d="M283 -118h-66c-82 125 -146 264 -146 453c0 174 69 313 146 419h66c-67 -113 -117 -254 -117 -419c0 -178 42 -314 117 -453z" />
    <glyph glyph-name="parenright" unicode=")" horiz-adv-x="304" 
d="M88 -118h-66c75 139 117 275 117 453c0 165 -50 306 -117 419h66c75 -107 146 -244 146 -419c0 -189 -64 -328 -146 -453z" />
    <glyph glyph-name="asterisk" unicode="*" horiz-adv-x="368" 
d="M122 441l-43 30l60 87l-95 33l18 46l95 -31v109h54v-109l95 31l18 -46l-95 -33l60 -87l-43 -30l-62 92z" />
    <glyph glyph-name="plus" unicode="+" horiz-adv-x="560" 
d="M53 294v64h194v200h66v-200h194v-64h-194v-200h-66v200h-194z" />
    <glyph glyph-name="comma" unicode="," horiz-adv-x="185" 
d="M45 -128v45c23 8 45 27 45 83h-46v99h97v-102c0 -73 -39 -114 -96 -125z" />
    <glyph glyph-name="hyphen" unicode="-" horiz-adv-x="344" 
d="M38 239v74h268v-74h-268z" />
    <glyph glyph-name="period" unicode="." horiz-adv-x="185" 
d="M44 0v99h97v-99h-97z" />
    <glyph glyph-name="slash" unicode="/" horiz-adv-x="400" 
d="M16 0l284 715h84l-284 -715h-84z" />
    <glyph glyph-name="zero" unicode="0" horiz-adv-x="620" 
d="M310 -15c-168 0 -266 140 -266 358c0 222 105 358 267 358c163 0 265 -134 265 -358c0 -218 -95 -358 -266 -358zM311 58c121 0 178 108 178 285c0 174 -59 286 -178 286c-121 0 -180 -109 -180 -286c0 -174 59 -285 180 -285z" />
    <glyph glyph-name="one" unicode="1" horiz-adv-x="346" 
d="M184 0v499h-150v56c85 3 156 32 169 134h65v-689h-84z" />
    <glyph glyph-name="two" unicode="2" horiz-adv-x="556" 
d="M506 0h-475c8 183 137 250 257 319c90 50 145 89 145 170c0 84 -57 141 -149 141c-48 0 -84 -16 -109 -43c-27 -29 -39 -66 -39 -137h-88c0 88 22 143 65 186c44 43 107 64 178 64c140 0 229 -87 229 -210c0 -133 -90 -176 -200 -237c-74 -40 -169 -98 -188 -173h374v-80
z" />
    <glyph glyph-name="three" unicode="3" horiz-adv-x="569" 
d="M291 -15c-151 0 -270 85 -273 241h83c3 -111 74 -171 187 -171c95 0 162 47 162 144c0 88 -64 133 -180 133h-43v65h42c108 0 161 45 161 118c0 76 -67 120 -149 120c-100 0 -158 -63 -158 -159h-82c0 136 93 225 243 225c127 0 228 -68 228 -188
c0 -77 -46 -121 -113 -144v-3c96 -25 138 -86 138 -175c0 -131 -107 -206 -246 -206z" />
    <glyph glyph-name="four" unicode="4" horiz-adv-x="566" 
d="M349 0v168h-323v75l339 449h66v-457h113v-67h-113v-168h-82zM107 238v-3h242v321h-2z" />
    <glyph glyph-name="five" unicode="5" horiz-adv-x="553" 
d="M275 -15c-142 0 -247 86 -252 213h83c11 -85 71 -139 168 -139c99 0 161 66 161 166c0 103 -71 163 -161 163c-75 0 -125 -30 -154 -71h-81l76 368h365v-75h-306l-45 -206h2c39 37 90 58 157 58c122 0 233 -87 233 -239c0 -147 -105 -238 -246 -238z" />
    <glyph glyph-name="six" unicode="6" horiz-adv-x="581" 
d="M312 -15c-76 0 -130 22 -171 61c-73 67 -97 160 -97 301c0 212 92 354 265 354c137 0 205 -91 216 -190h-83c-5 65 -53 119 -131 119c-134 0 -182 -108 -185 -276h2c44 61 105 95 188 95c124 0 226 -104 226 -230c0 -128 -101 -234 -230 -234zM310 53
c89 0 154 67 154 163c0 97 -68 164 -157 164c-99 0 -166 -64 -166 -163c0 -97 73 -164 169 -164z" />
    <glyph glyph-name="seven" unicode="7" horiz-adv-x="513" 
d="M210 0h-90c16 240 139 483 294 608v2h-391v75h479v-69c-141 -122 -279 -345 -292 -616z" />
    <glyph glyph-name="eight" unicode="8" horiz-adv-x="584" 
d="M295 -15c-126 0 -262 55 -262 211c0 98 64 154 141 178v3c-64 24 -107 74 -107 146c0 109 100 179 225 179s225 -70 225 -179c0 -72 -41 -121 -105 -146v-3c77 -24 139 -84 139 -178c0 -156 -131 -211 -256 -211zM295 55c108 0 172 53 172 141c0 91 -64 146 -175 146
c-108 0 -173 -55 -173 -146c0 -89 65 -141 176 -141zM292 408c88 0 143 41 143 112s-55 112 -143 112s-143 -41 -143 -112s55 -112 143 -112z" />
    <glyph glyph-name="nine" unicode="9" horiz-adv-x="581" 
d="M284 -15c-135 0 -232 80 -237 201h85c7 -76 58 -130 150 -130c52 0 89 14 116 45c41 44 57 120 61 223h-2c-44 -56 -106 -87 -189 -87c-125 0 -228 104 -228 230c0 128 101 234 240 234c68 0 119 -20 158 -51c79 -60 103 -158 103 -311c0 -140 -28 -239 -96 -299
c-42 -37 -96 -55 -161 -55zM279 306c103 0 168 67 168 164c0 96 -75 163 -167 163c-95 0 -162 -67 -162 -163c0 -97 72 -164 161 -164z" />
    <glyph glyph-name="colon" unicode=":" horiz-adv-x="191" 
d="M47 303v99h97v-99h-97zM47 0v99h97v-99h-97z" />
    <glyph glyph-name="semicolon" unicode=";" horiz-adv-x="191" 
d="M48 -128v45c23 8 45 27 45 83h-46v99h97v-102c0 -73 -39 -114 -96 -125zM47 303v99h97v-99h-97z" />
    <glyph glyph-name="less" unicode="&#x3c;" horiz-adv-x="511" 
d="M457 97l-407 173v83l407 173v-73l-343 -139v-2l343 -141v-74z" />
    <glyph glyph-name="equal" unicode="=" horiz-adv-x="560" 
d="M53 369v64h454v-64h-454zM53 194v64h454v-64h-454z" />
    <glyph glyph-name="greater" unicode="&#x3e;" horiz-adv-x="511" 
d="M54 97v73l343 139v2l-343 141v74l407 -173v-83z" />
    <glyph glyph-name="question" unicode="?" horiz-adv-x="504" 
d="M276 173h-76c0 109 29 163 105 228c43 41 83 69 83 135c0 63 -47 120 -135 120c-103 0 -151 -70 -154 -171h-82c3 136 72 243 239 243c141 0 218 -86 218 -191c0 -82 -45 -129 -92 -168c-83 -69 -106 -94 -106 -196zM189 0v99h97v-99h-97z" />
    <glyph glyph-name="at" unicode="@" horiz-adv-x="880" 
d="M404 79c-106 0 -171 78 -171 190c0 155 89 252 205 252c61 0 102 -31 123 -71h2l8 61h78l-34 -278c-7 -55 11 -83 55 -83c53 0 108 57 108 197c0 205 -142 303 -322 303c-188 0 -352 -137 -352 -366c0 -189 119 -328 334 -328c69 0 129 12 186 35l23 -55
c-62 -27 -130 -41 -204 -41c-243 0 -410 155 -410 390c0 274 213 428 426 428c196 0 388 -124 388 -362c0 -153 -60 -265 -182 -265c-63 0 -100 29 -115 72h-2c-31 -47 -84 -79 -144 -79zM412 141c93 0 136 84 136 191c0 76 -33 126 -108 126c-88 0 -126 -85 -126 -188
c0 -72 29 -129 98 -129z" />
    <glyph glyph-name="A" unicode="A" horiz-adv-x="648" 
d="M10 0l263 715h101l264 -715h-98l-76 218h-285l-77 -218h-92zM290 531l-85 -240h234l-82 240c-7 20 -14 45 -21 65c-3 12 -7 24 -11 36h-2c-4 -11 -8 -23 -11 -35c-7 -20 -15 -46 -22 -66z" />
    <glyph glyph-name="B" unicode="B" horiz-adv-x="644" 
d="M67 0v715h303c75 0 133 -21 172 -62c29 -31 46 -71 46 -122c0 -80 -43 -127 -115 -150v-3c81 -19 144 -77 144 -173c0 -56 -19 -102 -52 -137c-40 -43 -102 -68 -179 -68h-319zM157 81h225c49 0 87 12 112 36c20 21 32 48 32 83c0 89 -63 133 -150 133h-219v-252z
M157 409h202c88 0 139 42 139 117c0 69 -47 111 -127 111h-214v-228z" />
    <glyph glyph-name="C" unicode="C" horiz-adv-x="709" 
d="M375 -14c-203 0 -335 155 -335 372c0 210 126 373 339 373c167 0 268 -96 287 -228h-88c-17 89 -88 150 -201 150c-157 0 -245 -127 -245 -295c0 -176 97 -293 246 -293c135 0 200 92 208 197h89c-1 -72 -35 -150 -86 -201c-51 -50 -123 -75 -214 -75z" />
    <glyph glyph-name="D" unicode="D" horiz-adv-x="684" 
d="M67 0v715h260c215 0 317 -146 317 -360c0 -213 -109 -355 -324 -355h-253zM157 79h160c168 0 235 108 235 276s-60 282 -228 282h-167v-558z" />
    <glyph glyph-name="E" unicode="E" 
d="M67 0v715h505v-79h-415v-226h377v-76h-377v-251h427v-83h-517z" />
    <glyph glyph-name="F" unicode="F" horiz-adv-x="578" 
d="M67 0v715h485v-79h-395v-223h329v-76h-329v-337h-90z" />
    <glyph glyph-name="G" unicode="G" horiz-adv-x="742" 
d="M627 0l-26 94h-2c-52 -73 -128 -109 -223 -109c-201 0 -336 154 -336 370c0 211 119 375 344 375c166 0 267 -91 291 -230h-93c-20 96 -87 152 -200 152c-172 0 -250 -129 -250 -297c0 -175 102 -292 247 -292c147 0 216 100 216 220v17h-215v78h305v-378h-58z" />
    <glyph glyph-name="H" unicode="H" horiz-adv-x="696" 
d="M67 0v715h90v-304h382v304h90v-715h-90v338h-382v-338h-90z" />
    <glyph glyph-name="I" unicode="I" horiz-adv-x="228" 
d="M69 0v715h90v-715h-90z" />
    <glyph glyph-name="J" unicode="J" horiz-adv-x="497" 
d="M232 -14c-129 0 -210 70 -210 236v10h89v-7c0 -127 40 -165 124 -165c72 0 114 36 114 127v528h90v-534c0 -114 -69 -195 -207 -195z" />
    <glyph glyph-name="K" unicode="K" horiz-adv-x="644" 
d="M67 0v715h90v-355l352 355h113l-289 -286l313 -429h-105l-269 368l-115 -115v-253h-90z" />
    <glyph glyph-name="L" unicode="L" horiz-adv-x="554" 
d="M67 0v715h90v-632h375v-83h-465z" />
    <glyph glyph-name="M" unicode="M" horiz-adv-x="830" 
d="M67 0v715h115l232 -594h2l230 594h117v-715h-86v588h-2c-4 -11 -8 -21 -11 -32c-7 -19 -14 -41 -21 -58l-196 -498h-69l-196 498c-7 19 -14 39 -21 58c-3 11 -7 21 -11 32h-2v-588h-81z" />
    <glyph glyph-name="N" unicode="N" horiz-adv-x="693" 
d="M67 0v715h95l326 -497c12 -19 24 -41 35 -60c6 -11 12 -21 17 -32h2v589h84v-715h-92l-328 498c-12 17 -24 39 -35 58c-6 11 -12 21 -18 31h-2v-587h-84z" />
    <glyph glyph-name="O" unicode="O" horiz-adv-x="780" 
d="M390 -15c-216 0 -350 159 -350 373s134 373 350 373s350 -159 350 -373s-134 -373 -350 -373zM390 64c168 0 258 126 258 294s-90 295 -258 295s-258 -127 -258 -295s90 -294 258 -294z" />
    <glyph glyph-name="P" unicode="P" horiz-adv-x="603" 
d="M67 0v715h298c76 0 133 -25 170 -69c31 -35 48 -81 48 -136c0 -132 -74 -210 -231 -210h-195v-300h-90zM157 637v-264h188c101 0 149 50 149 133c0 87 -52 131 -144 131h-193z" />
    <glyph glyph-name="Q" unicode="Q" horiz-adv-x="780" 
d="M678 -60l-111 88c-51 -29 -110 -43 -177 -43c-216 0 -350 159 -350 373s134 373 350 373s350 -159 350 -373c0 -117 -39 -216 -111 -284l95 -76zM390 64c39 0 75 7 107 20l-72 58l46 58l91 -73c56 53 86 135 86 231c0 168 -90 295 -258 295s-258 -127 -258 -295
s90 -294 258 -294z" />
    <glyph glyph-name="R" unicode="R" horiz-adv-x="654" 
d="M67 0v715h334c125 0 211 -79 211 -196c0 -88 -37 -149 -124 -177v-3c73 -27 95 -75 103 -182c8 -114 20 -145 33 -153v-4h-97c-15 13 -18 40 -26 160c-7 105 -49 142 -145 142h-199v-302h-90zM157 637v-262h212c100 0 150 50 150 131c0 88 -40 131 -145 131h-217z" />
    <glyph glyph-name="S" unicode="S" horiz-adv-x="626" 
d="M327 -14c-200 0 -297 111 -305 256h88c12 -123 86 -184 221 -184c100 0 170 45 170 134c0 100 -86 120 -214 149c-125 27 -234 64 -234 199c0 117 98 189 243 189c180 0 252 -91 271 -223h-85c-13 103 -79 153 -184 153c-97 0 -161 -40 -161 -115c0 -81 79 -104 187 -126
c139 -29 266 -62 266 -223c0 -133 -109 -209 -263 -209z" />
    <glyph glyph-name="T" unicode="T" horiz-adv-x="610" 
d="M22 636v79h566v-79h-238v-636h-90v636h-238z" />
    <glyph glyph-name="U" unicode="U" horiz-adv-x="658" 
d="M329 -11c-156 0 -274 69 -274 242v484h90v-475c0 -123 68 -174 187 -174c113 0 181 51 181 174v475h90v-484c0 -173 -122 -242 -274 -242z" />
    <glyph glyph-name="V" unicode="V" horiz-adv-x="619" 
d="M259 0l-249 715h97l176 -532c5 -17 11 -40 18 -60c3 -12 7 -24 10 -36h2c3 12 7 24 10 36c7 20 11 44 18 60l174 532h94l-251 -715h-99z" />
    <glyph glyph-name="W" unicode="W" horiz-adv-x="914" 
d="M199 0l-185 715h94l113 -465c7 -24 13 -55 18 -79l9 -42h2c3 15 7 29 10 44c7 25 13 55 20 79l129 463h97l125 -463c7 -24 12 -55 19 -80c3 -15 7 -29 10 -43h2c3 15 7 29 10 44c7 25 11 54 18 77l119 465h91l-199 -715h-86l-131 504c-7 21 -12 47 -17 70l-9 39h-2
l-9 -39c-5 -23 -11 -49 -18 -70l-140 -504h-90z" />
    <glyph glyph-name="X" unicode="X" horiz-adv-x="616" 
d="M14 0l248 366l-230 349h104l177 -286h2l181 286h99l-234 -350l241 -365h-108l-184 301h-2l-192 -301h-102z" />
    <glyph glyph-name="Y" unicode="Y" horiz-adv-x="631" 
d="M269 0v303l-259 412h100l205 -340h2l208 340h96l-262 -414v-301h-90z" />
    <glyph glyph-name="Z" unicode="Z" 
d="M30 0v86l428 550v3h-403v76h514v-70l-434 -561v-3h451v-81h-556z" />
    <glyph glyph-name="bracketleft" unicode="[" horiz-adv-x="296" 
d="M77 -118v872h189v-66h-105v-737h105v-69h-189z" />
    <glyph glyph-name="backslash" unicode="\" horiz-adv-x="400" 
d="M300 0l-284 715h84l284 -715h-84z" />
    <glyph glyph-name="bracketright" unicode="]" horiz-adv-x="296" 
d="M30 -118v69h105v737h-105v66h189v-872h-189z" />
    <glyph glyph-name="asciicircum" unicode="^" horiz-adv-x="453" 
d="M11 428l168 287h95l168 -287h-85l-129 224h-2l-130 -224h-85z" />
    <glyph glyph-name="underscore" unicode="_" horiz-adv-x="408" 
d="M-2 -166v61h412v-61h-412z" />
    <glyph glyph-name="grave" unicode="`" horiz-adv-x="500" 
d="M221 598l-82 127h100l51 -127h-69z" />
    <glyph glyph-name="a" unicode="a" horiz-adv-x="510" 
d="M461 -5c-51 0 -81 26 -89 77h-1c-32 -40 -84 -82 -172 -82c-99 0 -175 45 -175 144c0 124 96 146 225 167c73 11 124 19 124 74c0 59 -41 91 -116 91c-84 0 -126 -35 -129 -114h-78c3 100 69 175 206 175c109 0 191 -41 191 -164v-246c0 -43 10 -66 55 -55h3v-59
c-11 -4 -23 -8 -44 -8zM217 52c108 0 157 79 157 139v88c-27 -17 -74 -30 -118 -38c-81 -16 -146 -28 -146 -105c0 -69 55 -84 107 -84z" />
    <glyph glyph-name="b" unicode="b" horiz-adv-x="550" 
d="M301 -15c-71 0 -120 24 -163 83h-2v-68h-81v715h81v-272h2c39 53 90 86 166 86c131 0 220 -100 220 -272c0 -166 -83 -272 -223 -272zM295 53c99 0 146 87 146 203s-47 204 -145 204c-113 0 -165 -92 -165 -204c0 -116 54 -203 164 -203z" />
    <glyph glyph-name="c" unicode="c" horiz-adv-x="519" 
d="M276 -14c-154 0 -250 123 -250 272s96 272 250 272c123 0 202 -69 221 -180h-82c-12 71 -60 113 -139 113c-110 0 -167 -91 -167 -205s57 -204 167 -204c84 0 134 48 141 128h80c-11 -125 -92 -196 -221 -196z" />
    <glyph glyph-name="d" unicode="d" horiz-adv-x="553" 
d="M255 -15c-141 0 -229 106 -229 272c0 172 99 272 227 272c73 0 129 -36 162 -85h2v271h81v-715h-81v63h-2c-39 -51 -87 -78 -160 -78zM258 53c115 0 164 87 164 203c0 120 -57 204 -165 204c-98 0 -148 -88 -148 -204s50 -203 149 -203z" />
    <glyph glyph-name="e" unicode="e" horiz-adv-x="533" 
d="M276 -14c-157 0 -250 123 -250 272s98 272 245 272c155 0 238 -120 238 -291h-400c5 -105 64 -185 167 -185c76 0 124 35 143 106h79c-24 -112 -105 -174 -222 -174zM271 466c-95 0 -149 -72 -160 -166h311c-5 104 -58 166 -151 166z" />
    <glyph glyph-name="f" unicode="f" horiz-adv-x="294" 
d="M22 451v66h71v83c0 89 50 121 137 121c17 0 30 -1 41 -2v-69c-15 1 -18 1 -26 1c-52 0 -71 -12 -71 -55v-79h96v-66h-96v-451h-81v451h-71z" />
    <glyph glyph-name="g" unicode="g" horiz-adv-x="543" 
d="M261 -172c-135 0 -210 54 -219 143h75c8 -57 62 -79 142 -79c96 0 148 42 148 133v73h-2c-39 -49 -78 -80 -153 -80c-133 0 -226 107 -226 256c0 161 101 255 221 255c76 0 123 -29 158 -78h2v66h81v-489c0 -136 -90 -200 -227 -200zM256 86c119 0 157 83 157 192
c0 113 -47 183 -158 183c-97 0 -146 -76 -146 -188c0 -113 51 -187 147 -187z" />
    <glyph glyph-name="h" unicode="h" horiz-adv-x="528" 
d="M136 715v-266h2c37 49 88 80 164 80c108 0 174 -58 174 -166v-363h-81v356c0 68 -44 105 -117 105c-83 0 -142 -58 -142 -143v-318h-81v715h81z" />
    <glyph glyph-name="i" unicode="i" horiz-adv-x="191" 
d="M55 0v517h81v-517h-81zM55 615v100h81v-100h-81z" />
    <glyph glyph-name="j" unicode="j" horiz-adv-x="191" 
d="M17 -147c-19 0 -32 1 -45 4v66h2c10 -2 19 -3 28 -3c35 0 53 17 53 50v547h81v-551c0 -96 -53 -113 -119 -113zM55 615v100h81v-100h-81z" />
    <glyph glyph-name="k" unicode="k" horiz-adv-x="489" 
d="M395 0l-183 279l-76 -72v-207h-81v715h81v-419l227 221h103l-198 -186l222 -331h-95z" />
    <glyph glyph-name="l" unicode="l" horiz-adv-x="197" 
d="M58 0v715h81v-715h-81z" />
    <glyph glyph-name="m" unicode="m" horiz-adv-x="794" 
d="M55 0v517h81v-74h2c32 51 87 86 152 86c64 0 112 -32 135 -92h2c33 60 94 92 158 92c92 0 157 -58 157 -166v-363h-81v359c0 64 -43 102 -95 102c-67 0 -127 -59 -127 -139v-322h-81v359c0 64 -36 102 -89 102c-63 0 -133 -59 -133 -139v-322h-81z" />
    <glyph glyph-name="n" unicode="n" horiz-adv-x="528" 
d="M136 517v-68h2c37 49 88 80 164 80c108 0 174 -58 174 -166v-363h-81v356c0 68 -44 105 -117 105c-83 0 -142 -58 -142 -143v-318h-81v517h81z" />
    <glyph glyph-name="o" unicode="o" horiz-adv-x="551" 
d="M276 -14c-154 0 -250 123 -250 272s96 272 250 272c155 0 249 -123 249 -272s-94 -272 -249 -272zM276 54c109 0 166 90 166 204s-57 205 -166 205c-110 0 -167 -91 -167 -205s57 -204 167 -204z" />
    <glyph glyph-name="p" unicode="p" horiz-adv-x="552" 
d="M55 -166v683h81v-73h2c39 53 90 85 166 85c131 0 222 -100 222 -272c0 -166 -85 -272 -225 -272c-71 0 -120 20 -163 76h-2v-227h-81zM295 53c100 0 148 87 148 203s-48 204 -147 204c-113 0 -165 -92 -165 -204s45 -203 164 -203z" />
    <glyph glyph-name="q" unicode="q" horiz-adv-x="552" 
d="M416 -166v229h-2c-39 -51 -85 -78 -160 -78c-140 0 -225 106 -225 272c0 172 97 272 222 272c76 0 127 -30 163 -81h2v69h81v-683h-81zM258 53c120 0 163 87 163 203c0 120 -51 204 -164 204c-98 0 -145 -88 -145 -204s47 -203 146 -203z" />
    <glyph glyph-name="r" unicode="r" horiz-adv-x="343" 
d="M136 517v-86h2c31 51 85 92 154 92c15 0 22 -2 33 -6v-78h-3c-12 4 -20 5 -36 5c-80 0 -150 -60 -150 -157v-287h-81v517h81z" />
    <glyph glyph-name="s" unicode="s" horiz-adv-x="478" 
d="M251 -15c-143 0 -221 66 -229 183h83c11 -90 72 -115 148 -115c85 0 120 37 120 85c0 60 -39 72 -135 93c-101 21 -193 41 -193 155c0 87 65 142 186 142c129 0 191 -61 203 -162h-83c-8 68 -45 98 -122 98c-75 0 -104 -33 -104 -74c0 -57 50 -66 139 -85
c104 -21 191 -43 191 -163c0 -104 -84 -157 -204 -157z" />
    <glyph glyph-name="t" unicode="t" horiz-adv-x="307" 
d="M22 451v66h75v163h81v-163h100v-66h-100v-336c0 -36 19 -48 52 -48c16 0 34 4 43 7h3v-70c-19 -4 -41 -7 -65 -7c-67 0 -114 27 -114 100v354h-75z" />
    <glyph glyph-name="u" unicode="u" horiz-adv-x="520" 
d="M465 0h-81v71h-2c-37 -51 -80 -83 -156 -83c-107 0 -174 63 -174 171v358h81v-356c0 -68 43 -106 116 -106c83 0 135 62 135 144v318h81v-517z" />
    <glyph glyph-name="v" unicode="v" horiz-adv-x="461" 
d="M183 0l-181 517h87l107 -328c7 -23 16 -51 23 -72c4 -13 8 -25 11 -37h2c3 13 7 25 11 38c7 23 15 48 23 71l109 328h84l-186 -517h-90z" />
    <glyph glyph-name="w" unicode="w" horiz-adv-x="734" 
d="M168 0l-164 517h87l91 -319c7 -23 11 -49 18 -72c3 -13 6 -26 10 -39h2l9 39c5 23 10 49 17 70l87 321h85l84 -321c5 -21 12 -47 17 -70c3 -13 5 -26 8 -39h2c3 13 7 26 10 39c7 23 12 49 19 72l96 319h84l-169 -517h-83l-86 313c-7 21 -12 47 -17 70c-3 13 -5 25 -8 38
h-2c-3 -13 -6 -25 -9 -38c-5 -23 -10 -49 -17 -70l-87 -313h-84z" />
    <glyph glyph-name="x" unicode="x" horiz-adv-x="503" 
d="M6 0l195 271l-172 246h94l123 -188h2l128 188h89l-170 -237l202 -280h-95l-153 222h-2l-150 -222h-91z" />
    <glyph glyph-name="y" unicode="y" horiz-adv-x="489" 
d="M121 -171c-31 0 -50 2 -73 11v72h4c11 -7 28 -11 55 -11c35 0 57 12 77 63l20 51l-202 502h88l122 -322c8 -23 16 -47 23 -67c4 -12 8 -23 12 -34h2c3 11 7 22 11 34c7 20 15 44 23 67l118 322h86l-221 -559c-43 -106 -81 -129 -145 -129z" />
    <glyph glyph-name="z" unicode="z" horiz-adv-x="471" 
d="M34 0v64l288 379v3h-271v71h384v-48l-297 -392v-3h308v-74h-412z" />
    <glyph glyph-name="braceleft" unicode="{" horiz-adv-x="296" 
d="M266 -118h-18c-100 0 -155 42 -155 161v178c0 44 -14 64 -69 67v67c51 3 69 23 69 67v174c0 119 55 158 155 158h18v-66h-16c-52 0 -73 -20 -73 -93v-179c0 -51 -19 -82 -56 -93v-3c37 -11 56 -42 56 -93v-183c0 -73 21 -93 73 -93h16v-69z" />
    <glyph glyph-name="bar" unicode="|" horiz-adv-x="224" 
d="M77 -118v872h70v-872h-70z" />
    <glyph glyph-name="braceright" unicode="}" horiz-adv-x="296" 
d="M30 -118v69h16c52 0 73 18 73 90v183c0 51 19 82 56 93v3c-37 11 -56 42 -56 93v179c0 73 -21 96 -73 96h-16v66h18c100 0 155 -42 155 -161v-174c0 -44 14 -64 69 -67v-67c-51 -3 -69 -23 -69 -67v-178c0 -119 -55 -158 -155 -158h-18z" />
    <glyph glyph-name="asciitilde" unicode="~" horiz-adv-x="393" 
d="M267 272c-24 0 -48 9 -71 20c-35 15 -48 23 -65 23c-19 0 -29 -14 -30 -41h-65c3 72 35 116 90 116c29 0 54 -11 77 -23c27 -13 38 -20 55 -20c21 0 33 14 34 41h65c-3 -67 -27 -116 -90 -116z" />
    <glyph glyph-name="Euro" unicode="&#x20ac;" horiz-adv-x="611" 
d="M22 376v54h64c27 165 128 271 267 271c125 0 211 -84 227 -204h-82c-16 84 -64 132 -147 132c-99 0 -158 -75 -177 -199h200v-54h-205c-1 -12 -1 -23 -1 -35s0 -23 1 -34h205v-54h-200c20 -127 84 -195 183 -195c92 0 140 64 152 169h78c-5 -139 -96 -242 -235 -242
c-128 0 -239 98 -266 268h-64v54h58c-1 11 -1 22 -1 34s0 23 1 35h-58z" />
    <glyph glyph-name="quotesinglbase" unicode="&#x201a;" horiz-adv-x="169" 
d="M127 100v-100c0 -72 -37 -103 -84 -110v38c23 9 38 29 38 72h-39v100h85z" />
    <glyph glyph-name="florin" unicode="&#x192;" horiz-adv-x="345" 
d="M32 342v64h91l25 170c15 100 77 136 186 121v-69c-68 7 -98 -7 -106 -63l-23 -159h105v-64h-114l-53 -375c-15 -99 -65 -129 -168 -116v67c47 -4 80 3 87 54l52 370h-82z" />
    <glyph glyph-name="quotedblbase" unicode="&#x201e;" horiz-adv-x="320" 
d="M278 100v-100c0 -72 -37 -103 -84 -110v38c23 9 38 29 38 72h-39v100h85zM127 100v-100c0 -72 -37 -103 -84 -110v38c23 9 38 29 38 72h-39v100h85z" />
    <glyph glyph-name="ellipsis" unicode="&#x2026;" horiz-adv-x="615" 
d="M474 0v99h97v-99h-97zM44 0v99h97v-99h-97zM259 0v99h97v-99h-97z" />
    <glyph glyph-name="dagger" unicode="&#x2020;" horiz-adv-x="546" 
d="M34 456v73h198v186h82v-186h198v-73h-198v-560h-82v560h-198z" />
    <glyph glyph-name="daggerdbl" unicode="&#x2021;" horiz-adv-x="546" 
d="M34 456v73h198v186h82v-186h198v-73h-198v-301h198v-73h-198v-186h-82v186h-198v73h198v301h-198z" />
    <glyph glyph-name="circumflex" unicode="&#x2c6;" horiz-adv-x="500" 
d="M113 602l93 106h92l89 -106h-87l-49 63h-2l-51 -63h-85z" />
    <glyph glyph-name="perthousand" unicode="&#x2030;" horiz-adv-x="1153" 
d="M186 305c-96 0 -162 78 -162 198c0 122 70 198 162 198s160 -74 160 -198c0 -120 -64 -198 -160 -198zM609 -15c-96 0 -162 78 -162 198c0 122 70 198 162 198s160 -74 160 -198c0 -120 -64 -198 -160 -198zM969 -15c-96 0 -162 78 -162 198c0 122 70 198 162 198
s160 -74 160 -198c0 -120 -64 -198 -160 -198zM166 0l393 685h68l-393 -685h-68zM186 365c57 0 86 58 86 138c0 78 -30 138 -86 138s-86 -58 -86 -138c0 -78 30 -138 86 -138zM609 45c57 0 86 58 86 138c0 78 -30 138 -86 138s-86 -58 -86 -138c0 -78 30 -138 86 -138z
M969 45c57 0 86 58 86 138c0 78 -30 138 -86 138s-86 -58 -86 -138c0 -78 30 -138 86 -138z" />
    <glyph glyph-name="Scaron" unicode="&#x160;" horiz-adv-x="626" 
d="M327 -14c-200 0 -297 111 -305 256h88c12 -123 86 -184 221 -184c100 0 170 45 170 134c0 100 -86 120 -214 149c-125 27 -234 64 -234 199c0 117 98 189 243 189c180 0 252 -91 271 -223h-85c-13 103 -79 153 -184 153c-97 0 -161 -40 -161 -115c0 -81 79 -104 187 -126
c139 -29 266 -62 266 -223c0 -133 -109 -209 -263 -209zM256 757l-89 106h87l49 -63h2l51 63h85l-93 -106h-92z" />
    <glyph glyph-name="guilsinglleft" unicode="&#x2039;" horiz-adv-x="246" 
d="M196 113l-146 115v87l146 115v-79l-104 -78v-2l104 -79v-79z" />
    <glyph glyph-name="OE" unicode="&#x152;" horiz-adv-x="1072" 
d="M367 -15c-193 0 -327 159 -327 373s139 373 327 373c77 0 138 -30 182 -82v66h473v-79h-383v-226h345v-76h-345v-251h395v-83h-485v56c-43 -45 -102 -71 -182 -71zM369 64c89 0 180 49 180 131v327c-5 77 -92 131 -180 131c-149 0 -237 -127 -237 -295s86 -294 237 -294z
" />
    <glyph glyph-name="quoteleft" unicode="&#x2018;" horiz-adv-x="169" 
d="M42 507v100c0 72 37 103 84 110v-38c-23 -9 -38 -29 -38 -72h39v-100h-85z" />
    <glyph glyph-name="quoteright" unicode="&#x2019;" horiz-adv-x="169" 
d="M127 715v-100c0 -72 -37 -103 -84 -110v38c23 9 38 29 38 72h-39v100h85z" />
    <glyph glyph-name="quotedblleft" unicode="&#x201c;" horiz-adv-x="320" 
d="M42 507v100c0 72 37 103 84 110v-38c-23 -9 -38 -29 -38 -72h39v-100h-85zM193 507v100c0 72 37 103 84 110v-38c-23 -9 -38 -29 -38 -72h39v-100h-85z" />
    <glyph glyph-name="quotedblright" unicode="&#x201d;" horiz-adv-x="320" 
d="M278 715v-100c0 -72 -37 -103 -84 -110v38c23 9 38 29 38 72h-39v100h85zM127 715v-100c0 -72 -37 -103 -84 -110v38c23 9 38 29 38 72h-39v100h85z" />
    <glyph glyph-name="bullet" unicode="&#x2022;" horiz-adv-x="305" 
d="M153 207c-66 0 -119 54 -119 118c0 65 53 119 119 119c64 0 118 -54 118 -119c0 -64 -54 -118 -118 -118z" />
    <glyph glyph-name="endash" unicode="&#x2013;" horiz-adv-x="500" 
d="M0 220v69h500v-69h-500z" />
    <glyph glyph-name="emdash" unicode="&#x2014;" horiz-adv-x="1000" 
d="M100 220v69h800v-69h-800z" />
    <glyph glyph-name="tilde" unicode="&#x2dc;" horiz-adv-x="500" 
d="M313 601c-47 0 -93 32 -120 32c-15 0 -22 -11 -23 -30h-60c5 57 30 92 77 92c53 0 80 -32 117 -32c19 0 24 14 27 30h58c-3 -51 -24 -92 -76 -92z" />
    <glyph glyph-name="trademark" unicode="&#x2122;" horiz-adv-x="639" 
d="M315 429v286h80l62 -218h1l63 218h81v-286h-52v219h-2c-2 -9 -4 -18 -7 -27c-4 -16 -11 -35 -16 -54l-41 -138h-53l-41 138c-5 16 -11 37 -15 53l-7 28h-2v-219h-51zM32 668v47h236v-47h-90v-239h-56v239h-90z" />
    <glyph glyph-name="scaron" unicode="&#x161;" horiz-adv-x="478" 
d="M251 -15c-143 0 -221 66 -229 183h83c11 -90 72 -115 148 -115c85 0 120 37 120 85c0 60 -39 72 -135 93c-101 21 -193 41 -193 155c0 87 65 142 186 142c129 0 191 -61 203 -162h-83c-8 68 -45 98 -122 98c-75 0 -104 -33 -104 -74c0 -57 50 -66 139 -85
c104 -21 191 -43 191 -163c0 -104 -84 -157 -204 -157zM190 602l-89 106h87l49 -63h2l51 63h85l-93 -106h-92z" />
    <glyph glyph-name="guilsinglright" unicode="&#x203a;" horiz-adv-x="246" 
d="M50 113v79l104 78v2l-104 79v79l146 -115v-87z" />
    <glyph glyph-name="oe" unicode="&#x153;" horiz-adv-x="858" 
d="M251 -14c-144 0 -225 123 -225 272s81 272 225 272c83 0 142 -43 177 -111c35 68 94 111 182 111c149 0 224 -123 224 -291h-368c5 -105 52 -185 155 -185c68 0 108 41 123 106h79c-19 -109 -94 -174 -202 -174c-95 0 -157 44 -192 113c-35 -69 -94 -113 -178 -113z
M251 54c96 0 141 90 141 204s-45 205 -141 205s-142 -91 -142 -205s46 -204 142 -204zM610 466c-89 0 -131 -72 -142 -166h279c-3 104 -54 166 -137 166z" />
    <glyph glyph-name="Ydieresis" unicode="&#x178;" horiz-adv-x="631" 
d="M269 0v303l-259 412h100l205 -340h2l208 340h96l-262 -414v-301h-90zM358 760v95h78v-95h-78zM194 760v95h78v-95h-78z" />
    <glyph glyph-name="uni00A0" unicode="&#xa0;" horiz-adv-x="159" 
 />
    <glyph glyph-name="exclamdown" unicode="&#xa1;" horiz-adv-x="235" 
d="M73 -127v229l22 313h45l22 -313v-229h-89zM69 489v99h97v-99h-97z" />
    <glyph glyph-name="cent" unicode="&#xa2;" horiz-adv-x="519" 
d="M245 -85v73c-136 16 -219 129 -219 270c0 139 83 254 219 270v63h56v-62c108 -9 179 -76 196 -179h-82c-11 63 -50 103 -114 111v-406c69 9 109 55 116 127h80c-11 -117 -81 -186 -196 -195v-72h-56zM109 258c0 -103 45 -186 136 -202v404c-91 -16 -136 -98 -136 -202z
" />
    <glyph glyph-name="sterling" unicode="&#xa3;" horiz-adv-x="551" 
d="M39 301v64h61c-17 44 -32 89 -32 141c0 112 89 194 228 194c116 0 220 -66 223 -229h-82c-3 116 -63 159 -144 159c-88 0 -138 -48 -138 -125c0 -47 18 -92 34 -140h143v-64h-125c4 -19 7 -39 7 -59c0 -71 -32 -114 -80 -153l2 -2c29 11 44 16 79 16
c73 0 112 -41 171 -41c41 0 75 21 104 48l48 -59c-43 -37 -91 -63 -155 -63c-91 0 -127 53 -205 53c-40 0 -71 -24 -99 -43l-48 66c57 43 104 82 104 163c0 25 -6 50 -13 74h-83z" />
    <glyph glyph-name="currency" unicode="&#xa4;" horiz-adv-x="484" 
d="M242 212c73 0 114 58 114 137c0 78 -41 138 -114 138s-115 -60 -115 -138c0 -79 42 -137 115 -137zM61 120l-43 41l66 68c-24 35 -36 76 -36 120c0 45 12 85 36 119l-66 68l43 41l64 -66c31 23 70 38 117 38s86 -15 117 -38l64 66l43 -41l-66 -68c23 -35 35 -74 35 -119
c0 -44 -13 -86 -36 -119l67 -69l-43 -41l-65 66c-31 -23 -69 -36 -116 -36s-85 13 -116 36z" />
    <glyph glyph-name="yen" unicode="&#xa5;" horiz-adv-x="562" 
d="M61 272v54h166l-217 359h94l178 -317h2l178 317h90l-215 -359h168v-54h-180v-69h180v-54h-180v-149h-84v149h-180v54h180v69h-180z" />
    <glyph glyph-name="brokenbar" unicode="&#xa6;" horiz-adv-x="224" 
d="M77 -118v412h70v-412h-70zM77 358v396h70v-396h-70z" />
    <glyph glyph-name="section" unicode="&#xa7;" horiz-adv-x="582" 
d="M301 -186c-139 0 -219 81 -222 197h83c5 -84 49 -125 141 -125c64 0 97 31 97 74c0 54 -62 84 -181 153c-119 66 -191 117 -191 208c0 71 45 113 113 136c-25 28 -40 58 -40 95c0 88 74 149 189 149c127 0 193 -71 200 -184h-83c-5 73 -43 112 -119 112
c-71 0 -103 -31 -103 -74c0 -53 56 -82 155 -135c116 -62 214 -115 214 -219c0 -76 -45 -122 -114 -143c27 -29 44 -61 44 -97c0 -88 -70 -147 -183 -147zM303 348c-44 24 -83 46 -115 70c-53 -15 -79 -50 -79 -89c0 -56 37 -79 145 -143c47 -27 96 -55 139 -87
c60 17 80 57 80 98c0 61 -53 84 -170 151z" />
    <glyph glyph-name="dieresis" unicode="&#xa8;" horiz-adv-x="500" 
d="M293 615v95h78v-95h-78zM129 615v95h78v-95h-78z" />
    <glyph glyph-name="copyright" unicode="&#xa9;" horiz-adv-x="812" 
d="M406 -17c-206 0 -366 158 -366 372s160 373 366 373s366 -159 366 -373s-160 -372 -366 -372zM406 22c183 0 320 141 320 333s-137 334 -320 334s-320 -142 -320 -334s137 -333 320 -333zM409 127c-125 0 -211 96 -211 229c0 132 80 232 212 232c106 0 170 -65 181 -146
h-76c-9 49 -46 82 -106 82c-88 0 -133 -73 -133 -168c0 -97 52 -165 133 -165c67 0 103 41 110 96h74c-1 -41 -19 -84 -50 -113s-74 -47 -134 -47z" />
    <glyph glyph-name="ordfeminine" unicode="&#xaa;" horiz-adv-x="480" 
d="M213 287c95 0 134 66 134 118v69c-23 -12 -64 -23 -103 -28c-78 -11 -123 -24 -123 -86c0 -59 45 -73 92 -73zM347 301h-2c-27 -38 -69 -73 -146 -73c-87 0 -159 44 -159 130c0 106 87 132 202 143c68 7 104 17 104 66c0 51 -32 76 -96 76c-73 0 -109 -32 -114 -96h-74
c5 85 66 154 187 154c97 0 168 -36 168 -144v-213c0 -31 6 -51 33 -51c5 0 10 1 17 2h3v-56c-9 -3 -22 -7 -41 -7c-56 0 -75 26 -82 69z" />
    <glyph glyph-name="guillemotleft" unicode="&#xab;" horiz-adv-x="424" 
d="M374 113l-137 115v87l137 115v-79l-93 -78v-2l93 -79v-79zM187 113l-137 115v87l137 115v-79l-93 -78v-2l93 -79v-79z" />
    <glyph glyph-name="logicalnot" unicode="&#xac;" horiz-adv-x="560" 
d="M63 334v64h414v-254h-66v190h-348z" />
    <glyph glyph-name="uni00AD" unicode="&#xad;" horiz-adv-x="344" 
d="M38 239v74h268v-74h-268z" />
    <glyph glyph-name="registered" unicode="&#xae;" horiz-adv-x="528" 
d="M264 244c-131 0 -238 102 -238 242c0 139 107 242 238 242s238 -103 238 -242c0 -140 -107 -242 -238 -242zM264 279c114 0 197 87 197 207c0 119 -83 207 -197 207c-115 0 -197 -88 -197 -207c0 -120 82 -207 197 -207zM171 361v256h118c47 0 81 -29 81 -72
c0 -29 -15 -53 -48 -61v-1c25 -7 37 -21 40 -52c4 -36 2 -63 11 -67v-3h-49c-7 3 -10 32 -11 59s-17 44 -49 44h-42v-103h-51zM222 575v-72h56c28 0 42 15 42 36s-14 36 -42 36h-56z" />
    <glyph glyph-name="macron" unicode="&#xaf;" horiz-adv-x="500" 
d="M121 622v67h258v-67h-258z" />
    <glyph glyph-name="degree" unicode="&#xb0;" horiz-adv-x="318" 
d="M159 455c-68 0 -125 55 -125 123s57 123 125 123c70 0 125 -55 125 -123s-55 -123 -125 -123zM159 502c43 0 70 32 70 76c0 43 -27 76 -70 76s-70 -33 -70 -76c0 -44 27 -76 70 -76z" />
    <glyph glyph-name="plusminus" unicode="&#xb1;" horiz-adv-x="560" 
d="M53 314v64h194v180h66v-180h194v-64h-194v-180h-66v180h-194zM53 0v64h454v-64h-454z" />
    <glyph glyph-name="twosuperior" unicode="&#xb2;" horiz-adv-x="349" 
d="M322 304h-299c3 91 69 141 124 178c56 35 102 59 102 111c0 44 -28 71 -71 71c-48 0 -77 -32 -77 -92h-68c0 100 57 151 149 151c85 0 141 -57 141 -129c0 -78 -61 -109 -117 -144c-35 -20 -89 -54 -99 -87h215v-59z" />
    <glyph glyph-name="threesuperior" unicode="&#xb3;" horiz-adv-x="367" 
d="M187 295c-100 0 -164 55 -165 147h68c3 -56 31 -90 94 -90c51 0 84 25 84 74c0 44 -32 68 -89 68h-26v55h25c49 0 78 21 78 60s-30 61 -71 61c-52 0 -79 -33 -82 -82h-68c3 81 58 136 151 136c81 0 139 -42 139 -113c0 -45 -27 -72 -67 -85v-2c55 -13 83 -48 83 -104
c0 -83 -71 -125 -154 -125z" />
    <glyph glyph-name="acute" unicode="&#xb4;" horiz-adv-x="500" 
d="M210 598l51 127h100l-82 -127h-69z" />
    <glyph glyph-name="mu" unicode="&#xb5;" horiz-adv-x="523" 
d="M55 -166v683h81v-356c0 -68 43 -106 116 -106c83 0 135 62 135 144v318h81v-517h-81v71h-2c-37 -51 -79 -83 -151 -83c-43 0 -75 12 -96 35h-2v-189h-81z" />
    <glyph glyph-name="paragraph" unicode="&#xb6;" horiz-adv-x="549" 
d="M265 353h-34c-133 0 -202 68 -202 184c0 52 19 96 51 129s80 49 144 49h258v-715h-74v637h-69v-637h-74v353z" />
    <glyph glyph-name="periodcentered" unicode="&#xb7;" horiz-adv-x="185" 
d="M47 263v99h97v-99h-97z" />
    <glyph glyph-name="cedilla" unicode="&#xb8;" horiz-adv-x="500" 
d="M228 -191c-49 0 -83 13 -107 29l16 29c21 -9 47 -15 72 -15c33 0 58 9 58 32c0 19 -13 28 -38 28c-19 0 -29 -3 -41 -7l-16 24l71 71h56l-59 -49v-2c37 5 92 -10 92 -64c0 -48 -43 -76 -104 -76z" />
    <glyph glyph-name="onesuperior" unicode="&#xb9;" horiz-adv-x="254" 
d="M122 304v289h-99v49c57 1 102 20 110 76h61v-414h-72z" />
    <glyph glyph-name="ordmasculine" unicode="&#xba;" horiz-adv-x="509" 
d="M255 223c-136 0 -219 107 -219 239s83 239 219 239s218 -107 218 -239s-82 -239 -218 -239zM255 286c93 0 138 76 138 176s-45 177 -138 177s-139 -77 -139 -177s46 -176 139 -176z" />
    <glyph glyph-name="guillemotright" unicode="&#xbb;" horiz-adv-x="424" 
d="M237 113v79l93 78v2l-93 79v79l137 -115v-87zM50 113v79l93 78v2l-93 79v79l137 -115v-87z" />
    <glyph glyph-name="onequarter" unicode="&#xbc;" horiz-adv-x="779" 
d="M125 304v289h-99v49c57 1 102 20 110 76h61v-414h-72zM105 0l453 715h72l-453 -715h-72zM620 0v94h-203v71l204 251h68v-267h65v-55h-65v-94h-69zM475 151v-2h145v175h-2z" />
    <glyph glyph-name="onehalf" unicode="&#xbd;" horiz-adv-x="804" 
d="M125 304v289h-99v49c57 1 102 20 110 76h61v-414h-72zM93 0l453 715h72l-453 -715h-72zM774 0h-299c3 91 69 141 124 178c56 35 102 59 102 111c0 44 -28 71 -71 71c-48 0 -77 -32 -77 -92h-68c0 100 57 151 149 151c85 0 141 -57 141 -129c0 -78 -61 -109 -117 -144
c-35 -20 -89 -54 -99 -87h215v-59z" />
    <glyph glyph-name="threequarters" unicode="&#xbe;" horiz-adv-x="845" 
d="M190 295c-100 0 -164 55 -165 147h68c3 -56 31 -90 94 -90c51 0 84 25 84 74c0 44 -32 68 -89 68h-26v55h25c49 0 78 21 78 60s-30 61 -71 61c-52 0 -79 -33 -82 -82h-68c3 81 58 136 151 136c81 0 139 -42 139 -113c0 -45 -27 -72 -67 -85v-2c55 -13 83 -48 83 -104
c0 -83 -71 -125 -154 -125zM182 0l453 715h72l-453 -715h-72zM686 0v94h-203v71l204 251h68v-267h65v-55h-65v-94h-69zM541 151v-2h145v175h-2z" />
    <glyph glyph-name="questiondown" unicode="&#xbf;" horiz-adv-x="504" 
d="M248 -140c-141 0 -218 86 -218 191c0 82 45 129 92 168c83 69 106 94 106 196h76c0 -110 -30 -161 -105 -228c-44 -39 -83 -70 -83 -135s47 -120 135 -120c103 0 151 68 154 171h82c-3 -136 -72 -243 -239 -243zM218 489v99h97v-99h-97z" />
    <glyph glyph-name="Agrave" unicode="&#xc0;" horiz-adv-x="648" 
d="M10 0l263 715h101l264 -715h-98l-76 218h-285l-77 -218h-92zM290 531l-85 -240h234l-82 240c-7 20 -14 45 -21 65c-3 12 -7 24 -11 36h-2c-4 -11 -8 -23 -11 -35c-7 -20 -15 -46 -22 -66zM300 753l-82 121h100l51 -121h-69z" />
    <glyph glyph-name="Aacute" unicode="&#xc1;" horiz-adv-x="648" 
d="M10 0l263 715h101l264 -715h-98l-76 218h-285l-77 -218h-92zM290 531l-85 -240h234l-82 240c-7 20 -14 45 -21 65c-3 12 -7 24 -11 36h-2c-4 -11 -8 -23 -11 -35c-7 -20 -15 -46 -22 -66zM289 753l51 121h100l-82 -121h-69z" />
    <glyph glyph-name="Acircumflex" unicode="&#xc2;" horiz-adv-x="648" 
d="M10 0l263 715h101l264 -715h-98l-76 218h-285l-77 -218h-92zM290 531l-85 -240h234l-82 240c-7 20 -14 45 -21 65c-3 12 -7 24 -11 36h-2c-4 -11 -8 -23 -11 -35c-7 -20 -15 -46 -22 -66zM189 757l93 106h92l89 -106h-87l-49 63h-2l-51 -63h-85z" />
    <glyph glyph-name="Atilde" unicode="&#xc3;" horiz-adv-x="648" 
d="M10 0l263 715h101l264 -715h-98l-76 218h-285l-77 -218h-92zM290 531l-85 -240h234l-82 240c-7 20 -14 45 -21 65c-3 12 -7 24 -11 36h-2c-4 -11 -8 -23 -11 -35c-7 -20 -15 -46 -22 -66zM390 760c-47 0 -93 32 -120 32c-15 0 -22 -11 -23 -30h-60c5 57 30 92 77 92
c53 0 80 -32 117 -32c19 0 24 14 27 30h58c-3 -51 -24 -92 -76 -92z" />
    <glyph glyph-name="Adieresis" unicode="&#xc4;" horiz-adv-x="648" 
d="M10 0l263 715h101l264 -715h-98l-76 218h-285l-77 -218h-92zM290 531l-85 -240h234l-82 240c-7 20 -14 45 -21 65c-3 12 -7 24 -11 36h-2c-4 -11 -8 -23 -11 -35c-7 -20 -15 -46 -22 -66zM369 760v95h78v-95h-78zM205 760v95h78v-95h-78z" />
    <glyph glyph-name="Aring" unicode="&#xc5;" horiz-adv-x="648" 
d="M10 0l263 715h101l264 -715h-98l-76 218h-285l-77 -218h-92zM290 531l-85 -240h234l-82 240c-7 20 -14 45 -21 65c-3 12 -7 24 -11 36h-2c-4 -11 -8 -23 -11 -35c-7 -20 -15 -46 -22 -66zM326 746c-48 0 -87 37 -87 85s39 85 87 85s87 -37 87 -85s-39 -85 -87 -85z
M326 781c28 0 47 22 47 50s-19 50 -47 50s-47 -22 -47 -50s19 -50 47 -50z" />
    <glyph glyph-name="AE" unicode="&#xc6;" horiz-adv-x="946" 
d="M896 715v-79h-371v-226h333v-76h-333v-251h383v-83h-473v218h-253l-77 -218h-91l260 715h622zM331 636l-123 -345h227v345h-104z" />
    <glyph glyph-name="Ccedilla" unicode="&#xc7;" horiz-adv-x="709" 
d="M347 -191c-49 0 -83 13 -107 29l16 29c21 -9 47 -15 72 -15c33 0 58 9 58 32c0 19 -13 28 -38 28c-19 0 -29 -3 -41 -7l-16 24l58 58c-188 13 -309 163 -309 371c0 210 126 373 339 373c167 0 268 -96 287 -228h-88c-17 89 -88 150 -201 150c-157 0 -245 -127 -245 -295
c0 -176 97 -293 246 -293c135 0 200 92 208 197h89c-1 -72 -35 -150 -86 -201c-45 -44 -108 -70 -187 -74l-43 -36v-2c37 5 92 -10 92 -64c0 -48 -43 -76 -104 -76z" />
    <glyph glyph-name="Egrave" unicode="&#xc8;" 
d="M67 0v715h505v-79h-415v-226h377v-76h-377v-251h427v-83h-517zM305 753l-82 121h100l51 -121h-69z" />
    <glyph glyph-name="Eacute" unicode="&#xc9;" 
d="M67 0v715h505v-79h-415v-226h377v-76h-377v-251h427v-83h-517zM294 753l51 121h100l-82 -121h-69z" />
    <glyph glyph-name="Ecircumflex" unicode="&#xca;" 
d="M67 0v715h505v-79h-415v-226h377v-76h-377v-251h427v-83h-517zM194 757l93 106h92l89 -106h-87l-49 63h-2l-51 -63h-85z" />
    <glyph glyph-name="Edieresis" unicode="&#xcb;" 
d="M67 0v715h505v-79h-415v-226h377v-76h-377v-251h427v-83h-517zM374 760v95h78v-95h-78zM210 760v95h78v-95h-78z" />
    <glyph glyph-name="Igrave" unicode="&#xcc;" horiz-adv-x="228" 
d="M69 0v715h90v-715h-90zM88 753l-82 121h100l51 -121h-69z" />
    <glyph glyph-name="Iacute" unicode="&#xcd;" horiz-adv-x="228" 
d="M69 0v715h90v-715h-90zM77 753l51 121h100l-82 -121h-69z" />
    <glyph glyph-name="Icircumflex" unicode="&#xce;" horiz-adv-x="228" 
d="M69 0v715h90v-715h-90zM-23 757l93 106h92l89 -106h-87l-49 63h-2l-51 -63h-85z" />
    <glyph glyph-name="Idieresis" unicode="&#xcf;" horiz-adv-x="228" 
d="M69 0v715h90v-715h-90zM157 760v95h78v-95h-78zM-7 760v95h78v-95h-78z" />
    <glyph glyph-name="Eth" unicode="&#xd0;" horiz-adv-x="695" 
d="M5 321v76h73v318h260c215 0 317 -146 317 -360c0 -213 -109 -355 -324 -355h-253v321h-73zM168 79h160c168 0 235 108 235 276s-60 282 -228 282h-167v-240h207v-76h-207v-242z" />
    <glyph glyph-name="Ntilde" unicode="&#xd1;" horiz-adv-x="693" 
d="M67 0v715h95l326 -497c12 -19 24 -41 35 -60c6 -11 12 -21 17 -32h2v589h84v-715h-92l-328 498c-12 17 -24 39 -35 58c-6 11 -12 21 -18 31h-2v-587h-84zM427 760c-47 0 -93 32 -120 32c-15 0 -22 -11 -23 -30h-60c5 57 30 92 77 92c53 0 80 -32 117 -32
c19 0 24 14 27 30h58c-3 -51 -24 -92 -76 -92z" />
    <glyph glyph-name="Ograve" unicode="&#xd2;" horiz-adv-x="780" 
d="M390 -15c-216 0 -350 159 -350 373s134 373 350 373s350 -159 350 -373s-134 -373 -350 -373zM390 64c168 0 258 126 258 294s-90 295 -258 295s-258 -127 -258 -295s90 -294 258 -294zM364 753l-82 121h100l51 -121h-69z" />
    <glyph glyph-name="Oacute" unicode="&#xd3;" horiz-adv-x="780" 
d="M390 -15c-216 0 -350 159 -350 373s134 373 350 373s350 -159 350 -373s-134 -373 -350 -373zM390 64c168 0 258 126 258 294s-90 295 -258 295s-258 -127 -258 -295s90 -294 258 -294zM353 753l51 121h100l-82 -121h-69z" />
    <glyph glyph-name="Ocircumflex" unicode="&#xd4;" horiz-adv-x="780" 
d="M390 -15c-216 0 -350 159 -350 373s134 373 350 373s350 -159 350 -373s-134 -373 -350 -373zM390 64c168 0 258 126 258 294s-90 295 -258 295s-258 -127 -258 -295s90 -294 258 -294zM253 757l93 106h92l89 -106h-87l-49 63h-2l-51 -63h-85z" />
    <glyph glyph-name="Otilde" unicode="&#xd5;" horiz-adv-x="780" 
d="M390 -15c-216 0 -350 159 -350 373s134 373 350 373s350 -159 350 -373s-134 -373 -350 -373zM390 64c168 0 258 126 258 294s-90 295 -258 295s-258 -127 -258 -295s90 -294 258 -294zM454 760c-47 0 -93 32 -120 32c-15 0 -22 -11 -23 -30h-60c5 57 30 92 77 92
c53 0 80 -32 117 -32c19 0 24 14 27 30h58c-3 -51 -24 -92 -76 -92z" />
    <glyph glyph-name="Odieresis" unicode="&#xd6;" horiz-adv-x="780" 
d="M390 -15c-216 0 -350 159 -350 373s134 373 350 373s350 -159 350 -373s-134 -373 -350 -373zM390 64c168 0 258 126 258 294s-90 295 -258 295s-258 -127 -258 -295s90 -294 258 -294zM433 760v95h78v-95h-78zM269 760v95h78v-95h-78z" />
    <glyph glyph-name="multiply" unicode="&#xd7;" horiz-adv-x="560" 
d="M117 117l-45 43l164 166l-164 166l45 43l163 -165l163 165l45 -43l-164 -166l164 -166l-45 -43l-163 164z" />
    <glyph glyph-name="Oslash" unicode="&#xd8;" horiz-adv-x="780" 
d="M76 -16l-38 35l82 88c-52 65 -80 151 -80 251c0 214 134 373 350 373c96 0 175 -31 235 -86l79 84l38 -35l-81 -87c51 -65 79 -150 79 -249c0 -214 -134 -373 -350 -373c-96 0 -174 31 -234 84zM132 358c0 -73 16 -136 49 -187l387 413c-43 43 -102 69 -178 69
c-168 0 -258 -127 -258 -295zM390 64c168 0 258 126 258 294c0 72 -16 134 -48 185l-387 -412c43 -43 101 -67 177 -67z" />
    <glyph glyph-name="Ugrave" unicode="&#xd9;" horiz-adv-x="658" 
d="M329 -11c-156 0 -274 69 -274 242v484h90v-475c0 -123 68 -174 187 -174c113 0 181 51 181 174v475h90v-484c0 -173 -122 -242 -274 -242zM303 753l-82 121h100l51 -121h-69z" />
    <glyph glyph-name="Uacute" unicode="&#xda;" horiz-adv-x="658" 
d="M329 -11c-156 0 -274 69 -274 242v484h90v-475c0 -123 68 -174 187 -174c113 0 181 51 181 174v475h90v-484c0 -173 -122 -242 -274 -242zM292 753l51 121h100l-82 -121h-69z" />
    <glyph glyph-name="Ucircumflex" unicode="&#xdb;" horiz-adv-x="658" 
d="M329 -11c-156 0 -274 69 -274 242v484h90v-475c0 -123 68 -174 187 -174c113 0 181 51 181 174v475h90v-484c0 -173 -122 -242 -274 -242zM192 757l93 106h92l89 -106h-87l-49 63h-2l-51 -63h-85z" />
    <glyph glyph-name="Udieresis" unicode="&#xdc;" horiz-adv-x="658" 
d="M329 -11c-156 0 -274 69 -274 242v484h90v-475c0 -123 68 -174 187 -174c113 0 181 51 181 174v475h90v-484c0 -173 -122 -242 -274 -242zM372 760v95h78v-95h-78zM208 760v95h78v-95h-78z" />
    <glyph glyph-name="Yacute" unicode="&#xdd;" horiz-adv-x="631" 
d="M269 0v303l-259 412h100l205 -340h2l208 340h96l-262 -414v-301h-90zM278 753l51 121h100l-82 -121h-69z" />
    <glyph glyph-name="Thorn" unicode="&#xde;" horiz-adv-x="600" 
d="M67 0v715h90v-127h208c76 0 133 -25 170 -69c31 -35 48 -81 48 -136c0 -132 -74 -210 -231 -210h-195v-173h-90zM350 510h-193v-264h188c101 0 149 50 149 133c0 87 -52 131 -144 131z" />
    <glyph glyph-name="germandbls" unicode="&#xdf;" horiz-adv-x="503" 
d="M255 -11c-15 0 -35 2 -51 5v66h2c107 -21 188 36 188 150c0 97 -55 156 -156 156h-27v62h30c75 0 126 49 126 121c0 64 -42 109 -114 109c-77 0 -117 -48 -117 -119v-539h-81v544c0 107 75 179 201 179c107 0 191 -67 191 -171c0 -73 -36 -123 -108 -148v-2
c76 -22 138 -83 138 -189c0 -136 -84 -224 -222 -224z" />
    <glyph glyph-name="agrave" unicode="&#xe0;" horiz-adv-x="510" 
d="M461 -5c-51 0 -81 26 -89 77h-1c-32 -40 -84 -82 -172 -82c-99 0 -175 45 -175 144c0 124 96 146 225 167c73 11 124 19 124 74c0 59 -41 91 -116 91c-84 0 -126 -35 -129 -114h-78c3 100 69 175 206 175c109 0 191 -41 191 -164v-246c0 -43 10 -66 55 -55h3v-59
c-11 -4 -23 -8 -44 -8zM217 52c108 0 157 79 157 139v88c-27 -17 -74 -30 -118 -38c-81 -16 -146 -28 -146 -105c0 -69 55 -84 107 -84zM230 598l-82 127h100l51 -127h-69z" />
    <glyph glyph-name="aacute" unicode="&#xe1;" horiz-adv-x="510" 
d="M461 -5c-51 0 -81 26 -89 77h-1c-32 -40 -84 -82 -172 -82c-99 0 -175 45 -175 144c0 124 96 146 225 167c73 11 124 19 124 74c0 59 -41 91 -116 91c-84 0 -126 -35 -129 -114h-78c3 100 69 175 206 175c109 0 191 -41 191 -164v-246c0 -43 10 -66 55 -55h3v-59
c-11 -4 -23 -8 -44 -8zM217 52c108 0 157 79 157 139v88c-27 -17 -74 -30 -118 -38c-81 -16 -146 -28 -146 -105c0 -69 55 -84 107 -84zM224 598l51 127h100l-82 -127h-69z" />
    <glyph glyph-name="acircumflex" unicode="&#xe2;" horiz-adv-x="510" 
d="M461 -5c-51 0 -81 26 -89 77h-1c-32 -40 -84 -82 -172 -82c-99 0 -175 45 -175 144c0 124 96 146 225 167c73 11 124 19 124 74c0 59 -41 91 -116 91c-84 0 -126 -35 -129 -114h-78c3 100 69 175 206 175c109 0 191 -41 191 -164v-246c0 -43 10 -66 55 -55h3v-59
c-11 -4 -23 -8 -44 -8zM217 52c108 0 157 79 157 139v88c-27 -17 -74 -30 -118 -38c-81 -16 -146 -28 -146 -105c0 -69 55 -84 107 -84zM119 602l93 106h92l89 -106h-87l-49 63h-2l-51 -63h-85z" />
    <glyph glyph-name="atilde" unicode="&#xe3;" horiz-adv-x="510" 
d="M461 -5c-51 0 -81 26 -89 77h-1c-32 -40 -84 -82 -172 -82c-99 0 -175 45 -175 144c0 124 96 146 225 167c73 11 124 19 124 74c0 59 -41 91 -116 91c-84 0 -126 -35 -129 -114h-78c3 100 69 175 206 175c109 0 191 -41 191 -164v-246c0 -43 10 -66 55 -55h3v-59
c-11 -4 -23 -8 -44 -8zM217 52c108 0 157 79 157 139v88c-27 -17 -74 -30 -118 -38c-81 -16 -146 -28 -146 -105c0 -69 55 -84 107 -84zM320 601c-47 0 -93 32 -120 32c-15 0 -22 -11 -23 -30h-60c5 57 30 92 77 92c53 0 80 -32 117 -32c19 0 24 14 27 30h58
c-3 -51 -24 -92 -76 -92z" />
    <glyph glyph-name="adieresis" unicode="&#xe4;" horiz-adv-x="510" 
d="M461 -5c-51 0 -81 26 -89 77h-1c-32 -40 -84 -82 -172 -82c-99 0 -175 45 -175 144c0 124 96 146 225 167c73 11 124 19 124 74c0 59 -41 91 -116 91c-84 0 -126 -35 -129 -114h-78c3 100 69 175 206 175c109 0 191 -41 191 -164v-246c0 -43 10 -66 55 -55h3v-59
c-11 -4 -23 -8 -44 -8zM217 52c108 0 157 79 157 139v88c-27 -17 -74 -30 -118 -38c-81 -16 -146 -28 -146 -105c0 -69 55 -84 107 -84zM299 615v95h78v-95h-78zM135 615v95h78v-95h-78z" />
    <glyph glyph-name="aring" unicode="&#xe5;" horiz-adv-x="510" 
d="M461 -5c-51 0 -81 26 -89 77h-1c-32 -40 -84 -82 -172 -82c-99 0 -175 45 -175 144c0 124 96 146 225 167c73 11 124 19 124 74c0 59 -41 91 -116 91c-84 0 -126 -35 -129 -114h-78c3 100 69 175 206 175c109 0 191 -41 191 -164v-246c0 -43 10 -66 55 -55h3v-59
c-11 -4 -23 -8 -44 -8zM217 52c108 0 157 79 157 139v88c-27 -17 -74 -30 -118 -38c-81 -16 -146 -28 -146 -105c0 -69 55 -84 107 -84zM256 559c-48 0 -87 37 -87 85s39 85 87 85s87 -37 87 -85s-39 -85 -87 -85zM256 594c28 0 47 22 47 50s-19 50 -47 50s-47 -22 -47 -50
s19 -50 47 -50z" />
    <glyph glyph-name="ae" unicode="&#xe6;" horiz-adv-x="841" 
d="M202 -10c-99 0 -178 48 -178 147c0 121 96 148 227 161c80 8 122 21 122 77c0 59 -38 91 -113 91c-83 0 -127 -38 -133 -114h-78c5 97 74 175 210 175c80 0 140 -22 167 -81c36 51 91 84 167 84c149 0 224 -123 224 -291h-368c5 -105 52 -185 155 -185
c68 0 108 41 123 106h79c-19 -109 -94 -174 -202 -174c-91 0 -153 41 -190 105h-2c-61 -88 -123 -101 -210 -101zM218 52c108 0 156 79 156 139v79c-27 -15 -75 -27 -120 -32c-89 -11 -144 -24 -144 -99c0 -69 55 -87 108 -87zM593 466c-89 0 -131 -72 -142 -166h279
c-3 104 -54 166 -137 166z" />
    <glyph glyph-name="ccedilla" unicode="&#xe7;" horiz-adv-x="519" 
d="M252 -191c-49 0 -83 13 -107 29l16 29c21 -9 47 -15 72 -15c33 0 58 9 58 32c0 19 -13 28 -38 28c-19 0 -29 -3 -41 -7l-16 24l58 58c-140 11 -228 128 -228 271c0 149 96 272 250 272c123 0 202 -69 221 -180h-82c-12 71 -60 113 -139 113c-110 0 -167 -91 -167 -205
s57 -204 167 -204c84 0 134 48 141 128h80c-11 -115 -78 -183 -189 -194l-44 -37v-2c37 5 92 -10 92 -64c0 -48 -43 -76 -104 -76z" />
    <glyph glyph-name="egrave" unicode="&#xe8;" horiz-adv-x="533" 
d="M276 -14c-157 0 -250 123 -250 272s98 272 245 272c155 0 238 -120 238 -291h-400c5 -105 64 -185 167 -185c76 0 124 35 143 106h79c-24 -112 -105 -174 -222 -174zM271 466c-95 0 -149 -72 -160 -166h311c-5 104 -58 166 -151 166zM245 598l-82 127h100l51 -127h-69z
" />
    <glyph glyph-name="eacute" unicode="&#xe9;" horiz-adv-x="533" 
d="M276 -14c-157 0 -250 123 -250 272s98 272 245 272c155 0 238 -120 238 -291h-400c5 -105 64 -185 167 -185c76 0 124 35 143 106h79c-24 -112 -105 -174 -222 -174zM271 466c-95 0 -149 -72 -160 -166h311c-5 104 -58 166 -151 166zM239 598l51 127h100l-82 -127h-69z
" />
    <glyph glyph-name="ecircumflex" unicode="&#xea;" horiz-adv-x="533" 
d="M276 -14c-157 0 -250 123 -250 272s98 272 245 272c155 0 238 -120 238 -291h-400c5 -105 64 -185 167 -185c76 0 124 35 143 106h79c-24 -112 -105 -174 -222 -174zM271 466c-95 0 -149 -72 -160 -166h311c-5 104 -58 166 -151 166zM134 602l93 106h92l89 -106h-87
l-49 63h-2l-51 -63h-85z" />
    <glyph glyph-name="edieresis" unicode="&#xeb;" horiz-adv-x="533" 
d="M276 -14c-157 0 -250 123 -250 272s98 272 245 272c155 0 238 -120 238 -291h-400c5 -105 64 -185 167 -185c76 0 124 35 143 106h79c-24 -112 -105 -174 -222 -174zM271 466c-95 0 -149 -72 -160 -166h311c-5 104 -58 166 -151 166zM314 615v95h78v-95h-78zM150 615v95
h78v-95h-78z" />
    <glyph glyph-name="igrave" unicode="&#xec;" horiz-adv-x="191" 
d="M55 0v517h81v-517h-81zM92 725l46 -127h-68l-77 127h99z" />
    <glyph glyph-name="iacute" unicode="&#xed;" horiz-adv-x="191" 
d="M63 598l46 127h99l-77 -127h-68zM55 0v517h81v-517h-81z" />
    <glyph glyph-name="icircumflex" unicode="&#xee;" horiz-adv-x="191" 
d="M-27 602l78 106h92l74 -106h-82l-39 61h-2l-41 -61h-80zM55 0v517h81v-517h-81z" />
    <glyph glyph-name="idieresis" unicode="&#xef;" horiz-adv-x="191" 
d="M124 615v95h78v-95h-78zM-12 615v95h78v-95h-78zM55 0v517h81v-517h-81z" />
    <glyph glyph-name="eth" unicode="&#xf0;" horiz-adv-x="551" 
d="M149 602l127 39c-29 27 -59 51 -90 74h101c21 -14 42 -31 65 -50l96 30l15 -44l-73 -23c72 -80 135 -195 135 -357c0 -164 -94 -285 -249 -285c-154 0 -250 123 -250 272s90 268 239 268c65 0 116 -31 152 -74c-24 57 -60 107 -103 152l-150 -46zM276 54
c109 0 166 91 166 207c0 113 -58 198 -170 198c-108 0 -163 -87 -163 -201s57 -204 167 -204z" />
    <glyph glyph-name="ntilde" unicode="&#xf1;" horiz-adv-x="528" 
d="M136 517v-68h2c37 49 88 80 164 80c108 0 174 -58 174 -166v-363h-81v356c0 68 -44 105 -117 105c-83 0 -142 -58 -142 -143v-318h-81v517h81zM329 601c-47 0 -93 32 -120 32c-15 0 -22 -11 -23 -30h-60c5 57 30 92 77 92c53 0 80 -32 117 -32c19 0 24 14 27 30h58
c-3 -51 -24 -92 -76 -92z" />
    <glyph glyph-name="ograve" unicode="&#xf2;" horiz-adv-x="551" 
d="M276 -14c-154 0 -250 123 -250 272s96 272 250 272c155 0 249 -123 249 -272s-94 -272 -249 -272zM276 54c109 0 166 90 166 204s-57 205 -166 205c-110 0 -167 -91 -167 -205s57 -204 167 -204zM249 598l-82 127h100l51 -127h-69z" />
    <glyph glyph-name="oacute" unicode="&#xf3;" horiz-adv-x="551" 
d="M276 -14c-154 0 -250 123 -250 272s96 272 250 272c155 0 249 -123 249 -272s-94 -272 -249 -272zM276 54c109 0 166 90 166 204s-57 205 -166 205c-110 0 -167 -91 -167 -205s57 -204 167 -204zM243 598l51 127h100l-82 -127h-69z" />
    <glyph glyph-name="ocircumflex" unicode="&#xf4;" horiz-adv-x="551" 
d="M276 -14c-154 0 -250 123 -250 272s96 272 250 272c155 0 249 -123 249 -272s-94 -272 -249 -272zM276 54c109 0 166 90 166 204s-57 205 -166 205c-110 0 -167 -91 -167 -205s57 -204 167 -204zM138 602l93 106h92l89 -106h-87l-49 63h-2l-51 -63h-85z" />
    <glyph glyph-name="otilde" unicode="&#xf5;" horiz-adv-x="551" 
d="M276 -14c-154 0 -250 123 -250 272s96 272 250 272c155 0 249 -123 249 -272s-94 -272 -249 -272zM276 54c109 0 166 90 166 204s-57 205 -166 205c-110 0 -167 -91 -167 -205s57 -204 167 -204zM339 601c-47 0 -93 32 -120 32c-15 0 -22 -11 -23 -30h-60
c5 57 30 92 77 92c53 0 80 -32 117 -32c19 0 24 14 27 30h58c-3 -51 -24 -92 -76 -92z" />
    <glyph glyph-name="odieresis" unicode="&#xf6;" horiz-adv-x="551" 
d="M276 -14c-154 0 -250 123 -250 272s96 272 250 272c155 0 249 -123 249 -272s-94 -272 -249 -272zM276 54c109 0 166 90 166 204s-57 205 -166 205c-110 0 -167 -91 -167 -205s57 -204 167 -204zM318 615v95h78v-95h-78zM154 615v95h78v-95h-78z" />
    <glyph glyph-name="divide" unicode="&#xf7;" horiz-adv-x="560" 
d="M53 294v64h454v-64h-454zM232 105v99h97v-99h-97zM232 448v99h97v-99h-97z" />
    <glyph glyph-name="oslash" unicode="&#xf8;" horiz-adv-x="551" 
d="M52 -14l-30 28l60 65c-36 48 -56 110 -56 179c0 149 96 272 250 272c68 0 122 -23 165 -62l57 62l30 -28l-59 -64c36 -48 56 -111 56 -180c0 -149 -94 -272 -249 -272c-68 0 -123 24 -166 63zM276 54c109 0 166 90 166 204c0 47 -9 87 -27 121l-256 -276
c28 -31 66 -49 117 -49zM109 258c0 -47 9 -87 27 -121l255 277c-27 31 -66 49 -115 49c-110 0 -167 -91 -167 -205z" />
    <glyph glyph-name="ugrave" unicode="&#xf9;" horiz-adv-x="520" 
d="M465 0h-81v71h-2c-37 -51 -80 -83 -156 -83c-107 0 -174 63 -174 171v358h81v-356c0 -68 43 -106 116 -106c83 0 135 62 135 144v318h81v-517zM236 598l-82 127h100l51 -127h-69z" />
    <glyph glyph-name="uacute" unicode="&#xfa;" horiz-adv-x="520" 
d="M465 0h-81v71h-2c-37 -51 -80 -83 -156 -83c-107 0 -174 63 -174 171v358h81v-356c0 -68 43 -106 116 -106c83 0 135 62 135 144v318h81v-517zM230 598l51 127h100l-82 -127h-69z" />
    <glyph glyph-name="ucircumflex" unicode="&#xfb;" horiz-adv-x="520" 
d="M465 0h-81v71h-2c-37 -51 -80 -83 -156 -83c-107 0 -174 63 -174 171v358h81v-356c0 -68 43 -106 116 -106c83 0 135 62 135 144v318h81v-517zM125 602l93 106h92l89 -106h-87l-49 63h-2l-51 -63h-85z" />
    <glyph glyph-name="udieresis" unicode="&#xfc;" horiz-adv-x="520" 
d="M465 0h-81v71h-2c-37 -51 -80 -83 -156 -83c-107 0 -174 63 -174 171v358h81v-356c0 -68 43 -106 116 -106c83 0 135 62 135 144v318h81v-517zM305 615v95h78v-95h-78zM141 615v95h78v-95h-78z" />
    <glyph glyph-name="yacute" unicode="&#xfd;" horiz-adv-x="489" 
d="M121 -171c-31 0 -50 2 -73 11v72h4c11 -7 28 -11 55 -11c35 0 57 12 77 63l20 51l-202 502h88l122 -322c8 -23 16 -47 23 -67c4 -12 8 -23 12 -34h2c3 11 7 22 11 34c7 20 15 44 23 67l118 322h86l-221 -559c-43 -106 -81 -129 -145 -129zM217 598l51 127h100l-82 -127
h-69z" />
    <glyph glyph-name="thorn" unicode="&#xfe;" horiz-adv-x="552" 
d="M301 -15c-71 0 -120 20 -163 76h-2v-227h-81v881h81v-271h2c39 53 90 85 166 85c131 0 222 -100 222 -272c0 -166 -85 -272 -225 -272zM295 53c100 0 148 87 148 203s-48 204 -147 204c-113 0 -165 -92 -165 -204s45 -203 164 -203z" />
    <glyph glyph-name="ydieresis" unicode="&#xff;" horiz-adv-x="489" 
d="M121 -171c-31 0 -50 2 -73 11v72h4c11 -7 28 -11 55 -11c35 0 57 12 77 63l20 51l-202 502h88l122 -322c8 -23 16 -47 23 -67c4 -12 8 -23 12 -34h2c3 11 7 22 11 34c7 20 15 44 23 67l118 322h86l-221 -559c-43 -106 -81 -129 -145 -129zM292 615v95h78v-95h-78z
M128 615v95h78v-95h-78z" />
    <glyph glyph-name="Amacron" unicode="&#x100;" horiz-adv-x="648" 
d="M10 0l263 715h101l264 -715h-98l-76 218h-285l-77 -218h-92zM290 531l-85 -240h234l-82 240c-7 20 -14 45 -21 65c-3 12 -7 24 -11 36h-2c-4 -11 -8 -23 -11 -35c-7 -20 -15 -46 -22 -66zM197 760v67h258v-67h-258z" />
    <glyph glyph-name="amacron" unicode="&#x101;" horiz-adv-x="510" 
d="M461 -5c-51 0 -81 26 -89 77h-1c-32 -40 -84 -82 -172 -82c-99 0 -175 45 -175 144c0 124 96 146 225 167c73 11 124 19 124 74c0 59 -41 91 -116 91c-84 0 -126 -35 -129 -114h-78c3 100 69 175 206 175c109 0 191 -41 191 -164v-246c0 -43 10 -66 55 -55h3v-59
c-11 -4 -23 -8 -44 -8zM217 52c108 0 157 79 157 139v88c-27 -17 -74 -30 -118 -38c-81 -16 -146 -28 -146 -105c0 -69 55 -84 107 -84zM127 622v67h258v-67h-258z" />
    <glyph glyph-name="Abreve" unicode="&#x102;" horiz-adv-x="648" 
d="M10 0l263 715h101l264 -715h-98l-76 218h-285l-77 -218h-92zM290 531l-85 -240h234l-82 240c-7 20 -14 45 -21 65c-3 12 -7 24 -11 36h-2c-4 -11 -8 -23 -11 -35c-7 -20 -15 -46 -22 -66zM326 759c-67 0 -124 44 -127 111h60c7 -31 26 -49 66 -49s63 18 70 49h58
c-3 -60 -52 -111 -127 -111z" />
    <glyph glyph-name="abreve" unicode="&#x103;" horiz-adv-x="510" 
d="M461 -5c-51 0 -81 26 -89 77h-1c-32 -40 -84 -82 -172 -82c-99 0 -175 45 -175 144c0 124 96 146 225 167c73 11 124 19 124 74c0 59 -41 91 -116 91c-84 0 -126 -35 -129 -114h-78c3 100 69 175 206 175c109 0 191 -41 191 -164v-246c0 -43 10 -66 55 -55h3v-59
c-11 -4 -23 -8 -44 -8zM217 52c108 0 157 79 157 139v88c-27 -17 -74 -30 -118 -38c-81 -16 -146 -28 -146 -105c0 -69 55 -84 107 -84zM256 604c-67 0 -124 44 -127 111h60c7 -31 26 -49 66 -49s63 18 70 49h58c-3 -60 -52 -111 -127 -111z" />
    <glyph glyph-name="Aogonek" unicode="&#x104;" horiz-adv-x="648" 
d="M592 -172c-67 0 -101 32 -101 79c0 36 24 66 51 87l-78 224h-285l-77 -218h-92l263 715h101l261 -706c-40 -32 -68 -61 -68 -89c0 -23 13 -34 40 -34c14 0 26 2 37 7h3v-56c-13 -4 -31 -9 -55 -9zM290 531l-85 -240h234l-82 240c-7 20 -14 45 -21 65c-3 12 -7 24 -11 36
h-2c-4 -11 -8 -23 -11 -35c-7 -20 -15 -46 -22 -66z" />
    <glyph glyph-name="aogonek" unicode="&#x105;" horiz-adv-x="510" 
d="M452 -172c-67 0 -101 32 -101 79c0 45 39 77 71 93c-27 10 -44 34 -50 72h-1c-32 -40 -84 -82 -172 -82c-99 0 -175 45 -175 144c0 124 96 146 225 167c73 11 124 19 124 74c0 59 -41 91 -116 91c-84 0 -126 -35 -129 -114h-78c3 100 69 175 206 175
c109 0 191 -41 191 -164v-246c0 -43 10 -66 55 -55h3v-59c-44 -13 -78 -52 -78 -83c0 -23 13 -34 40 -34c14 0 26 2 37 7h3v-56c-13 -4 -31 -9 -55 -9zM217 52c108 0 157 79 157 139v88c-27 -17 -74 -30 -118 -38c-81 -16 -146 -28 -146 -105c0 -69 55 -84 107 -84z" />
    <glyph glyph-name="Cacute" unicode="&#x106;" horiz-adv-x="709" 
d="M375 -14c-203 0 -335 155 -335 372c0 210 126 373 339 373c167 0 268 -96 287 -228h-88c-17 89 -88 150 -201 150c-157 0 -245 -127 -245 -295c0 -176 97 -293 246 -293c135 0 200 92 208 197h89c-1 -72 -35 -150 -86 -201c-51 -50 -123 -75 -214 -75zM336 753l51 121
h100l-82 -121h-69z" />
    <glyph glyph-name="cacute" unicode="&#x107;" horiz-adv-x="519" 
d="M276 -14c-154 0 -250 123 -250 272s96 272 250 272c123 0 202 -69 221 -180h-82c-12 71 -60 113 -139 113c-110 0 -167 -91 -167 -205s57 -204 167 -204c84 0 134 48 141 128h80c-11 -125 -92 -196 -221 -196zM246 598l51 127h100l-82 -127h-69z" />
    <glyph glyph-name="Ccircumflex" unicode="&#x108;" horiz-adv-x="709" 
d="M375 -14c-203 0 -335 155 -335 372c0 210 126 373 339 373c167 0 268 -96 287 -228h-88c-17 89 -88 150 -201 150c-157 0 -245 -127 -245 -295c0 -176 97 -293 246 -293c135 0 200 92 208 197h89c-1 -72 -35 -150 -86 -201c-51 -50 -123 -75 -214 -75zM236 757l93 106h92
l89 -106h-87l-49 63h-2l-51 -63h-85z" />
    <glyph glyph-name="ccircumflex" unicode="&#x109;" horiz-adv-x="519" 
d="M276 -14c-154 0 -250 123 -250 272s96 272 250 272c123 0 202 -69 221 -180h-82c-12 71 -60 113 -139 113c-110 0 -167 -91 -167 -205s57 -204 167 -204c84 0 134 48 141 128h80c-11 -125 -92 -196 -221 -196zM141 602l93 106h92l89 -106h-87l-49 63h-2l-51 -63h-85z" />
    <glyph glyph-name="Cdotaccent" unicode="&#x10a;" horiz-adv-x="709" 
d="M375 -14c-203 0 -335 155 -335 372c0 210 126 373 339 373c167 0 268 -96 287 -228h-88c-17 89 -88 150 -201 150c-157 0 -245 -127 -245 -295c0 -176 97 -293 246 -293c135 0 200 92 208 197h89c-1 -72 -35 -150 -86 -201c-51 -50 -123 -75 -214 -75zM334 760v95h78v-95
h-78z" />
    <glyph glyph-name="cdotaccent" unicode="&#x10b;" horiz-adv-x="519" 
d="M276 -14c-154 0 -250 123 -250 272s96 272 250 272c123 0 202 -69 221 -180h-82c-12 71 -60 113 -139 113c-110 0 -167 -91 -167 -205s57 -204 167 -204c84 0 134 48 141 128h80c-11 -125 -92 -196 -221 -196zM238 615v100h81v-100h-81z" />
    <glyph glyph-name="Ccaron" unicode="&#x10c;" horiz-adv-x="709" 
d="M375 -14c-203 0 -335 155 -335 372c0 210 126 373 339 373c167 0 268 -96 287 -228h-88c-17 89 -88 150 -201 150c-157 0 -245 -127 -245 -295c0 -176 97 -293 246 -293c135 0 200 92 208 197h89c-1 -72 -35 -150 -86 -201c-51 -50 -123 -75 -214 -75zM325 757l-89 106
h87l49 -63h2l51 63h85l-93 -106h-92z" />
    <glyph glyph-name="ccaron" unicode="&#x10d;" horiz-adv-x="519" 
d="M276 -14c-154 0 -250 123 -250 272s96 272 250 272c123 0 202 -69 221 -180h-82c-12 71 -60 113 -139 113c-110 0 -167 -91 -167 -205s57 -204 167 -204c84 0 134 48 141 128h80c-11 -125 -92 -196 -221 -196zM230 602l-89 106h87l49 -63h2l51 63h85l-93 -106h-92z" />
    <glyph glyph-name="Dcaron" unicode="&#x10e;" horiz-adv-x="684" 
d="M67 0v715h260c215 0 317 -146 317 -360c0 -213 -109 -355 -324 -355h-253zM157 79h160c168 0 235 108 235 276s-60 282 -228 282h-167v-558zM266 757l-89 106h87l49 -63h2l51 63h85l-93 -106h-92z" />
    <glyph glyph-name="dcaron" unicode="&#x10f;" horiz-adv-x="553" 
d="M255 -15c-141 0 -229 106 -229 272c0 172 99 272 227 272c73 0 129 -36 162 -85h2v271h81v-715h-81v63h-2c-39 -51 -87 -78 -160 -78zM258 53c115 0 164 87 164 203c0 120 -57 204 -165 204c-98 0 -148 -88 -148 -204s50 -203 149 -203zM636 715v-80
c0 -60 -38 -85 -85 -92v38c27 8 40 21 40 54h-40v80h85z" />
    <glyph glyph-name="Dcroat" unicode="&#x110;" horiz-adv-x="695" 
d="M5 321v76h73v318h260c215 0 317 -146 317 -360c0 -213 -109 -355 -324 -355h-253v321h-73zM168 79h160c168 0 235 108 235 276s-60 282 -228 282h-167v-240h207v-76h-207v-242z" />
    <glyph glyph-name="dcroat" unicode="&#x111;" horiz-adv-x="553" 
d="M282 578v63h135v74h81v-74h63v-63h-63v-578h-81v63h-2c-39 -51 -87 -78 -160 -78c-141 0 -229 106 -229 272c0 172 99 272 227 272c73 0 129 -36 162 -85h2v134h-135zM258 53c115 0 164 87 164 203c0 120 -57 204 -165 204c-98 0 -148 -88 -148 -204s50 -203 149 -203z
" />
    <glyph glyph-name="Emacron" unicode="&#x112;" 
d="M67 0v715h505v-79h-415v-226h377v-76h-377v-251h427v-83h-517zM202 760v67h258v-67h-258z" />
    <glyph glyph-name="emacron" unicode="&#x113;" horiz-adv-x="533" 
d="M276 -14c-157 0 -250 123 -250 272s98 272 245 272c155 0 238 -120 238 -291h-400c5 -105 64 -185 167 -185c76 0 124 35 143 106h79c-24 -112 -105 -174 -222 -174zM271 466c-95 0 -149 -72 -160 -166h311c-5 104 -58 166 -151 166zM142 622v67h258v-67h-258z" />
    <glyph glyph-name="Ebreve" unicode="&#x114;" 
d="M67 0v715h505v-79h-415v-226h377v-76h-377v-251h427v-83h-517zM331 759c-67 0 -124 44 -127 111h60c7 -31 26 -49 66 -49s63 18 70 49h58c-3 -60 -52 -111 -127 -111z" />
    <glyph glyph-name="ebreve" unicode="&#x115;" horiz-adv-x="533" 
d="M276 -14c-157 0 -250 123 -250 272s98 272 245 272c155 0 238 -120 238 -291h-400c5 -105 64 -185 167 -185c76 0 124 35 143 106h79c-24 -112 -105 -174 -222 -174zM271 466c-95 0 -149 -72 -160 -166h311c-5 104 -58 166 -151 166zM271 604c-67 0 -124 44 -127 111h60
c7 -31 26 -49 66 -49s63 18 70 49h58c-3 -60 -52 -111 -127 -111z" />
    <glyph glyph-name="Edotaccent" unicode="&#x116;" 
d="M67 0v715h505v-79h-415v-226h377v-76h-377v-251h427v-83h-517zM292 760v95h78v-95h-78z" />
    <glyph glyph-name="edotaccent" unicode="&#x117;" horiz-adv-x="533" 
d="M276 -14c-157 0 -250 123 -250 272s98 272 245 272c155 0 238 -120 238 -291h-400c5 -105 64 -185 167 -185c76 0 124 35 143 106h79c-24 -112 -105 -174 -222 -174zM271 466c-95 0 -149 -72 -160 -166h311c-5 104 -58 166 -151 166zM231 615v100h81v-100h-81z" />
    <glyph glyph-name="Eogonek" unicode="&#x118;" 
d="M67 0v715h505v-79h-415v-226h377v-76h-377v-251h427v-83h-61c-31 -25 -58 -52 -58 -80c0 -23 13 -34 40 -34c14 0 26 2 37 7h3v-56c-13 -4 -31 -9 -55 -9c-67 0 -101 32 -101 79c0 40 30 74 61 93h-383z" />
    <glyph glyph-name="eogonek" unicode="&#x119;" horiz-adv-x="533" 
d="M361 -172c-67 0 -101 32 -101 79c0 36 25 62 52 81c-12 -1 -24 -2 -36 -2c-157 0 -250 123 -250 272s98 272 245 272c155 0 238 -120 238 -291h-400c5 -105 64 -185 167 -185c76 0 124 35 143 106h79c-13 -60 -40 -99 -80 -135c-47 -43 -82 -74 -82 -105
c0 -23 13 -34 40 -34c14 0 26 2 37 7h3v-56c-13 -4 -31 -9 -55 -9zM271 466c-95 0 -149 -72 -160 -166h311c-5 104 -58 166 -151 166z" />
    <glyph glyph-name="Ecaron" unicode="&#x11a;" 
d="M67 0v715h505v-79h-415v-226h377v-76h-377v-251h427v-83h-517zM283 757l-89 106h87l49 -63h2l51 63h85l-93 -106h-92z" />
    <glyph glyph-name="ecaron" unicode="&#x11b;" horiz-adv-x="533" 
d="M276 -14c-157 0 -250 123 -250 272s98 272 245 272c155 0 238 -120 238 -291h-400c5 -105 64 -185 167 -185c76 0 124 35 143 106h79c-24 -112 -105 -174 -222 -174zM271 466c-95 0 -149 -72 -160 -166h311c-5 104 -58 166 -151 166zM223 602l-89 106h87l49 -63h2l51 63
h85l-93 -106h-92z" />
    <glyph glyph-name="Gcircumflex" unicode="&#x11c;" horiz-adv-x="742" 
d="M627 0l-26 94h-2c-52 -73 -128 -109 -223 -109c-201 0 -336 154 -336 370c0 211 119 375 344 375c166 0 267 -91 291 -230h-93c-20 96 -87 152 -200 152c-172 0 -250 -129 -250 -297c0 -175 102 -292 247 -292c147 0 216 100 216 220v17h-215v78h305v-378h-58zM241 757
l93 106h92l89 -106h-87l-49 63h-2l-51 -63h-85z" />
    <glyph glyph-name="gcircumflex" unicode="&#x11d;" horiz-adv-x="543" 
d="M261 -172c-135 0 -210 54 -219 143h75c8 -57 62 -79 142 -79c96 0 148 42 148 133v73h-2c-39 -49 -78 -80 -153 -80c-133 0 -226 107 -226 256c0 161 101 255 221 255c76 0 123 -29 158 -78h2v66h81v-489c0 -136 -90 -200 -227 -200zM256 86c119 0 157 83 157 192
c0 113 -47 183 -158 183c-97 0 -146 -76 -146 -188c0 -113 51 -187 147 -187zM129 602l93 106h92l89 -106h-87l-49 63h-2l-51 -63h-85z" />
    <glyph glyph-name="Gbreve" unicode="&#x11e;" horiz-adv-x="742" 
d="M627 0l-26 94h-2c-52 -73 -128 -109 -223 -109c-201 0 -336 154 -336 370c0 211 119 375 344 375c166 0 267 -91 291 -230h-93c-20 96 -87 152 -200 152c-172 0 -250 -129 -250 -297c0 -175 102 -292 247 -292c147 0 216 100 216 220v17h-215v78h305v-378h-58zM378 759
c-67 0 -124 44 -127 111h60c7 -31 26 -49 66 -49s63 18 70 49h58c-3 -60 -52 -111 -127 -111z" />
    <glyph glyph-name="gbreve" unicode="&#x11f;" horiz-adv-x="543" 
d="M261 -172c-135 0 -210 54 -219 143h75c8 -57 62 -79 142 -79c96 0 148 42 148 133v73h-2c-39 -49 -78 -80 -153 -80c-133 0 -226 107 -226 256c0 161 101 255 221 255c76 0 123 -29 158 -78h2v66h81v-489c0 -136 -90 -200 -227 -200zM256 86c119 0 157 83 157 192
c0 113 -47 183 -158 183c-97 0 -146 -76 -146 -188c0 -113 51 -187 147 -187zM266 604c-67 0 -124 44 -127 111h60c7 -31 26 -49 66 -49s63 18 70 49h58c-3 -60 -52 -111 -127 -111z" />
    <glyph glyph-name="Gdotaccent" unicode="&#x120;" horiz-adv-x="742" 
d="M627 0l-26 94h-2c-52 -73 -128 -109 -223 -109c-201 0 -336 154 -336 370c0 211 119 375 344 375c166 0 267 -91 291 -230h-93c-20 96 -87 152 -200 152c-172 0 -250 -129 -250 -297c0 -175 102 -292 247 -292c147 0 216 100 216 220v17h-215v78h305v-378h-58zM339 760
v95h78v-95h-78z" />
    <glyph glyph-name="gdotaccent" unicode="&#x121;" horiz-adv-x="543" 
d="M261 -172c-135 0 -210 54 -219 143h75c8 -57 62 -79 142 -79c96 0 148 42 148 133v73h-2c-39 -49 -78 -80 -153 -80c-133 0 -226 107 -226 256c0 161 101 255 221 255c76 0 123 -29 158 -78h2v66h81v-489c0 -136 -90 -200 -227 -200zM256 86c119 0 157 83 157 192
c0 113 -47 183 -158 183c-97 0 -146 -76 -146 -188c0 -113 51 -187 147 -187zM226 615v100h81v-100h-81z" />
    <glyph glyph-name="uni0122" unicode="&#x122;" horiz-adv-x="742" 
d="M627 0l-26 94h-2c-52 -73 -128 -109 -223 -109c-201 0 -336 154 -336 370c0 211 119 375 344 375c166 0 267 -91 291 -230h-93c-20 96 -87 152 -200 152c-172 0 -250 -129 -250 -297c0 -175 102 -292 247 -292c147 0 216 100 216 220v17h-215v78h305v-378h-58zM335 -228
v38c23 7 40 18 40 57h-39v89h85v-89c0 -67 -37 -88 -86 -95z" />
    <glyph glyph-name="uni0123" unicode="&#x123;" horiz-adv-x="543" 
d="M261 -172c-135 0 -210 54 -219 143h75c8 -57 62 -79 142 -79c96 0 148 42 148 133v73h-2c-39 -49 -78 -80 -153 -80c-133 0 -226 107 -226 256c0 161 101 255 221 255c76 0 123 -29 158 -78h2v66h81v-489c0 -136 -90 -200 -227 -200zM256 86c119 0 157 83 157 192
c0 113 -47 183 -158 183c-97 0 -146 -76 -146 -188c0 -113 51 -187 147 -187zM305 788v-38c-23 -7 -40 -18 -40 -57h39v-89h-85v89c0 67 37 88 86 95z" />
    <glyph glyph-name="Hcircumflex" unicode="&#x124;" horiz-adv-x="696" 
d="M67 0v715h90v-304h382v304h90v-715h-90v338h-382v-338h-90zM211 757l93 106h92l89 -106h-87l-49 63h-2l-51 -63h-85z" />
    <glyph glyph-name="hcircumflex" unicode="&#x125;" horiz-adv-x="528" 
d="M136 715v-266h2c37 49 88 80 164 80c108 0 174 -58 174 -166v-363h-81v356c0 68 -44 105 -117 105c-83 0 -142 -58 -142 -143v-318h-81v715h81zM128 757l93 106h92l89 -106h-87l-49 63h-2l-51 -63h-85z" />
    <glyph glyph-name="Hbar" unicode="&#x126;" horiz-adv-x="696" 
d="M-3 506v68h70v141h90v-141h382v141h90v-141h70v-68h-70v-506h-90v338h-382v-338h-90v506h-70zM157 411h382v95h-382v-95z" />
    <glyph glyph-name="hbar" unicode="&#x127;" horiz-adv-x="528" 
d="M-8 578v63h63v74h81v-74h135v-63h-135v-129h2c37 49 88 80 164 80c108 0 174 -58 174 -166v-363h-81v356c0 68 -44 105 -117 105c-83 0 -142 -58 -142 -143v-318h-81v578h-63z" />
    <glyph glyph-name="Itilde" unicode="&#x128;" horiz-adv-x="228" 
d="M69 0v715h90v-715h-90zM178 760c-47 0 -93 32 -120 32c-15 0 -22 -11 -23 -30h-60c5 57 30 92 77 92c53 0 80 -32 117 -32c19 0 24 14 27 30h58c-3 -51 -24 -92 -76 -92z" />
    <glyph glyph-name="itilde" unicode="&#x129;" horiz-adv-x="191" 
d="M147 601c-38 0 -74 31 -98 31c-11 0 -18 -10 -19 -29h-58c4 60 28 92 73 92c34 0 75 -31 97 -31c16 0 20 13 21 29h56c-3 -53 -21 -92 -72 -92zM55 0v517h81v-517h-81z" />
    <glyph glyph-name="Imacron" unicode="&#x12a;" horiz-adv-x="228" 
d="M69 0v715h90v-715h-90zM5 760v67h218v-67h-218z" />
    <glyph glyph-name="imacron" unicode="&#x12b;" horiz-adv-x="191" 
d="M55 0v517h81v-517h-81zM-4 622v67h198v-67h-198z" />
    <glyph glyph-name="Iogonek" unicode="&#x12e;" horiz-adv-x="228" 
d="M69 0v715h90v-713c-36 -27 -63 -54 -63 -82c0 -23 13 -34 40 -34c14 0 26 2 37 7h3v-56c-13 -4 -31 -9 -55 -9c-67 0 -101 32 -101 79c0 40 30 74 61 93h-12z" />
    <glyph glyph-name="iogonek" unicode="&#x12f;" horiz-adv-x="191" 
d="M1 -93c0 39 26 71 54 90v520h81v-515c-35 -27 -59 -54 -59 -82c0 -24 13 -34 36 -34c13 0 25 2 36 7h3v-56c-13 -4 -30 -9 -54 -9c-63 0 -97 32 -97 79zM55 615v100h81v-100h-81z" />
    <glyph glyph-name="Idotaccent" unicode="&#x130;" horiz-adv-x="228" 
d="M69 0v715h90v-715h-90zM75 760v95h78v-95h-78z" />
    <glyph glyph-name="dotlessi" unicode="&#x131;" horiz-adv-x="191" 
d="M55 0v517h81v-517h-81z" />
    <glyph glyph-name="IJ" unicode="&#x132;" horiz-adv-x="708" 
d="M69 0v715h90v-715h-90zM443 -14c-129 0 -210 70 -210 236v10h89v-7c0 -127 40 -165 124 -165c72 0 114 36 114 127v528h90v-534c0 -114 -69 -195 -207 -195z" />
    <glyph glyph-name="ij" unicode="&#x133;" horiz-adv-x="382" 
d="M55 0v517h81v-517h-81zM55 615v100h81v-100h-81zM208 -147c-19 0 -32 1 -45 4v66h2c10 -2 19 -3 28 -3c35 0 53 17 53 50v547h81v-551c0 -96 -53 -113 -119 -113zM246 615v100h81v-100h-81z" />
    <glyph glyph-name="Jcircumflex" unicode="&#x134;" horiz-adv-x="497" 
d="M232 -14c-129 0 -210 70 -210 236v10h89v-7c0 -127 40 -165 124 -165c72 0 114 36 114 127v528h90v-534c0 -114 -69 -195 -207 -195zM257 757l93 106h92l89 -106h-87l-49 63h-2l-51 -63h-85z" />
    <glyph glyph-name="jcircumflex" unicode="&#x135;" horiz-adv-x="191" 
d="M-27 602l78 106h92l74 -106h-82l-39 61h-2l-41 -61h-80zM17 -147c-19 0 -32 1 -45 4v66h2c10 -2 19 -3 28 -3c35 0 53 17 53 50v547h81v-551c0 -96 -53 -113 -119 -113z" />
    <glyph glyph-name="uni0136" unicode="&#x136;" horiz-adv-x="644" 
d="M67 0v715h90v-355l352 355h113l-289 -286l313 -429h-105l-269 368l-115 -115v-253h-90zM275 -228v38c23 7 40 18 40 57h-39v89h85v-89c0 -67 -37 -88 -86 -95z" />
    <glyph glyph-name="uni0137" unicode="&#x137;" horiz-adv-x="489" 
d="M395 0l-183 279l-76 -72v-207h-81v715h81v-419l227 221h103l-198 -186l222 -331h-95zM211 -228v38c23 7 40 18 40 57h-39v89h85v-89c0 -67 -37 -88 -86 -95z" />
    <glyph glyph-name="Lacute" unicode="&#x139;" horiz-adv-x="554" 
d="M67 0v715h90v-632h375v-83h-465zM75 753l51 121h100l-82 -121h-69z" />
    <glyph glyph-name="lacute" unicode="&#x13a;" horiz-adv-x="197" 
d="M58 0v715h81v-715h-81zM66 753l51 121h100l-82 -121h-69z" />
    <glyph glyph-name="uni013B" unicode="&#x13b;" horiz-adv-x="554" 
d="M67 0v715h90v-632h375v-83h-465zM262 -228v38c23 7 40 18 40 57h-39v89h85v-89c0 -67 -37 -88 -86 -95z" />
    <glyph glyph-name="uni013C" unicode="&#x13c;" horiz-adv-x="197" 
d="M58 0v715h81v-715h-81zM55 -228v38c23 7 40 18 40 57h-39v89h85v-89c0 -67 -37 -88 -86 -95z" />
    <glyph glyph-name="Lcaron" unicode="&#x13d;" horiz-adv-x="554" 
d="M67 0v715h90v-632h375v-83h-465zM403 715v-80c0 -60 -38 -85 -85 -92v38c27 8 40 21 40 54h-40v80h85z" />
    <glyph glyph-name="lcaron" unicode="&#x13e;" horiz-adv-x="197" 
d="M58 0v715h81v-715h-81zM277 715v-80c0 -60 -38 -85 -85 -92v38c27 8 40 21 40 54h-40v80h85z" />
    <glyph glyph-name="Ldot" unicode="&#x13f;" horiz-adv-x="554" 
d="M67 0v715h90v-632h375v-83h-465zM364 293v99h97v-99h-97z" />
    <glyph glyph-name="ldot" unicode="&#x140;" horiz-adv-x="294" 
d="M58 0v715h81v-715h-81zM194 293v99h97v-99h-97z" />
    <glyph glyph-name="Lslash" unicode="&#x141;" horiz-adv-x="554" 
d="M-5 201v77l72 38v399h90v-350l248 133v-77l-248 -133v-205h375v-83h-465v239z" />
    <glyph glyph-name="lslash" unicode="&#x142;" horiz-adv-x="227" 
d="M5 241v77l68 55v342h81v-277l79 64v-77l-79 -64v-361h-81v296z" />
    <glyph glyph-name="Nacute" unicode="&#x143;" horiz-adv-x="693" 
d="M67 0v715h95l326 -497c12 -19 24 -41 35 -60c6 -11 12 -21 17 -32h2v589h84v-715h-92l-328 498c-12 17 -24 39 -35 58c-6 11 -12 21 -18 31h-2v-587h-84zM326 753l51 121h100l-82 -121h-69z" />
    <glyph glyph-name="nacute" unicode="&#x144;" horiz-adv-x="528" 
d="M136 517v-68h2c37 49 88 80 164 80c108 0 174 -58 174 -166v-363h-81v356c0 68 -44 105 -117 105c-83 0 -142 -58 -142 -143v-318h-81v517h81zM233 598l51 127h100l-82 -127h-69z" />
    <glyph glyph-name="uni0145" unicode="&#x145;" horiz-adv-x="693" 
d="M67 0v715h95l326 -497c12 -19 24 -41 35 -60c6 -11 12 -21 17 -32h2v589h84v-715h-92l-328 498c-12 17 -24 39 -35 58c-6 11 -12 21 -18 31h-2v-587h-84zM291 -228v38c23 7 40 18 40 57h-39v89h85v-89c0 -67 -37 -88 -86 -95z" />
    <glyph glyph-name="uni0146" unicode="&#x146;" horiz-adv-x="528" 
d="M136 517v-68h2c37 49 88 80 164 80c108 0 174 -58 174 -166v-363h-81v356c0 68 -44 105 -117 105c-83 0 -142 -58 -142 -143v-318h-81v517h81zM222 -228v38c23 7 40 18 40 57h-39v89h85v-89c0 -67 -37 -88 -86 -95z" />
    <glyph glyph-name="Ncaron" unicode="&#x147;" horiz-adv-x="693" 
d="M67 0v715h95l326 -497c12 -19 24 -41 35 -60c6 -11 12 -21 17 -32h2v589h84v-715h-92l-328 498c-12 17 -24 39 -35 58c-6 11 -12 21 -18 31h-2v-587h-84zM315 757l-89 106h87l49 -63h2l51 63h85l-93 -106h-92z" />
    <glyph glyph-name="ncaron" unicode="&#x148;" horiz-adv-x="528" 
d="M136 517v-68h2c37 49 88 80 164 80c108 0 174 -58 174 -166v-363h-81v356c0 68 -44 105 -117 105c-83 0 -142 -58 -142 -143v-318h-81v517h81zM217 602l-89 106h87l49 -63h2l51 63h85l-93 -106h-92z" />
    <glyph glyph-name="napostrophe" unicode="&#x149;" horiz-adv-x="528" 
d="M136 517v-68h2c37 49 88 80 164 80c108 0 174 -58 174 -166v-363h-81v356c0 68 -44 105 -117 105c-83 0 -142 -58 -142 -143v-318h-81v517h81zM73 715v-80c0 -60 -38 -85 -85 -92v38c27 8 40 21 40 54h-40v80h85z" />
    <glyph glyph-name="Omacron" unicode="&#x14c;" horiz-adv-x="780" 
d="M390 -15c-216 0 -350 159 -350 373s134 373 350 373s350 -159 350 -373s-134 -373 -350 -373zM390 64c168 0 258 126 258 294s-90 295 -258 295s-258 -127 -258 -295s90 -294 258 -294zM261 760v67h258v-67h-258z" />
    <glyph glyph-name="omacron" unicode="&#x14d;" horiz-adv-x="551" 
d="M276 -14c-154 0 -250 123 -250 272s96 272 250 272c155 0 249 -123 249 -272s-94 -272 -249 -272zM276 54c109 0 166 90 166 204s-57 205 -166 205c-110 0 -167 -91 -167 -205s57 -204 167 -204zM146 622v67h258v-67h-258z" />
    <glyph glyph-name="Obreve" unicode="&#x14e;" horiz-adv-x="780" 
d="M390 -15c-216 0 -350 159 -350 373s134 373 350 373s350 -159 350 -373s-134 -373 -350 -373zM390 64c168 0 258 126 258 294s-90 295 -258 295s-258 -127 -258 -295s90 -294 258 -294zM390 759c-67 0 -124 44 -127 111h60c7 -31 26 -49 66 -49s63 18 70 49h58
c-3 -60 -52 -111 -127 -111z" />
    <glyph glyph-name="obreve" unicode="&#x14f;" horiz-adv-x="551" 
d="M276 -14c-154 0 -250 123 -250 272s96 272 250 272c155 0 249 -123 249 -272s-94 -272 -249 -272zM276 54c109 0 166 90 166 204s-57 205 -166 205c-110 0 -167 -91 -167 -205s57 -204 167 -204zM275 604c-67 0 -124 44 -127 111h60c7 -31 26 -49 66 -49s63 18 70 49h58
c-3 -60 -52 -111 -127 -111z" />
    <glyph glyph-name="Ohungarumlaut" unicode="&#x150;" horiz-adv-x="780" 
d="M390 -15c-216 0 -350 159 -350 373s134 373 350 373s350 -159 350 -373s-134 -373 -350 -373zM390 64c168 0 258 126 258 294s-90 295 -258 295s-258 -127 -258 -295s90 -294 258 -294zM433 753l31 127h82l-52 -127h-61zM303 753l31 127h82l-52 -127h-61z" />
    <glyph glyph-name="ohungarumlaut" unicode="&#x151;" horiz-adv-x="551" 
d="M276 -14c-154 0 -250 123 -250 272s96 272 250 272c155 0 249 -123 249 -272s-94 -272 -249 -272zM276 54c109 0 166 90 166 204s-57 205 -166 205c-110 0 -167 -91 -167 -205s57 -204 167 -204zM313 598l31 127h82l-52 -127h-61zM183 598l31 127h82l-52 -127h-61z" />
    <glyph glyph-name="Racute" unicode="&#x154;" horiz-adv-x="654" 
d="M67 0v715h334c125 0 211 -79 211 -196c0 -88 -37 -149 -124 -177v-3c73 -27 95 -75 103 -182c8 -114 20 -145 33 -153v-4h-97c-15 13 -18 40 -26 160c-7 105 -49 142 -145 142h-199v-302h-90zM157 637v-262h212c100 0 150 50 150 131c0 88 -40 131 -145 131h-217z
M290 753l51 121h100l-82 -121h-69z" />
    <glyph glyph-name="racute" unicode="&#x155;" horiz-adv-x="343" 
d="M136 517v-86h2c31 51 85 92 154 92c15 0 22 -2 33 -6v-78h-3c-12 4 -20 5 -36 5c-80 0 -150 -60 -150 -157v-287h-81v517h81zM165 598l51 127h100l-82 -127h-69z" />
    <glyph glyph-name="uni0156" unicode="&#x156;" horiz-adv-x="654" 
d="M67 0v715h334c125 0 211 -79 211 -196c0 -88 -37 -149 -124 -177v-3c73 -27 95 -75 103 -182c8 -114 20 -145 33 -153v-4h-97c-15 13 -18 40 -26 160c-7 105 -49 142 -145 142h-199v-302h-90zM157 637v-262h212c100 0 150 50 150 131c0 88 -40 131 -145 131h-217z
M302 -228v38c23 7 40 18 40 57h-39v89h85v-89c0 -67 -37 -88 -86 -95z" />
    <glyph glyph-name="uni0157" unicode="&#x157;" horiz-adv-x="343" 
d="M136 517v-86h2c31 51 85 92 154 92c15 0 22 -2 33 -6v-78h-3c-12 4 -20 5 -36 5c-80 0 -150 -60 -150 -157v-287h-81v517h81zM52 -228v38c23 7 40 18 40 57h-39v89h85v-89c0 -67 -37 -88 -86 -95z" />
    <glyph glyph-name="Rcaron" unicode="&#x158;" horiz-adv-x="654" 
d="M67 0v715h334c125 0 211 -79 211 -196c0 -88 -37 -149 -124 -177v-3c73 -27 95 -75 103 -182c8 -114 20 -145 33 -153v-4h-97c-15 13 -18 40 -26 160c-7 105 -49 142 -145 142h-199v-302h-90zM157 637v-262h212c100 0 150 50 150 131c0 88 -40 131 -145 131h-217z
M279 757l-89 106h87l49 -63h2l51 63h85l-93 -106h-92z" />
    <glyph glyph-name="rcaron" unicode="&#x159;" horiz-adv-x="343" 
d="M136 517v-86h2c31 51 85 92 154 92c15 0 22 -2 33 -6v-78h-3c-12 4 -20 5 -36 5c-80 0 -150 -60 -150 -157v-287h-81v517h81zM149 602l-89 106h87l49 -63h2l51 63h85l-93 -106h-92z" />
    <glyph glyph-name="Sacute" unicode="&#x15a;" horiz-adv-x="626" 
d="M327 -14c-200 0 -297 111 -305 256h88c12 -123 86 -184 221 -184c100 0 170 45 170 134c0 100 -86 120 -214 149c-125 27 -234 64 -234 199c0 117 98 189 243 189c180 0 252 -91 271 -223h-85c-13 103 -79 153 -184 153c-97 0 -161 -40 -161 -115c0 -81 79 -104 187 -126
c139 -29 266 -62 266 -223c0 -133 -109 -209 -263 -209zM267 753l51 121h100l-82 -121h-69z" />
    <glyph glyph-name="sacute" unicode="&#x15b;" horiz-adv-x="478" 
d="M251 -15c-143 0 -221 66 -229 183h83c11 -90 72 -115 148 -115c85 0 120 37 120 85c0 60 -39 72 -135 93c-101 21 -193 41 -193 155c0 87 65 142 186 142c129 0 191 -61 203 -162h-83c-8 68 -45 98 -122 98c-75 0 -104 -33 -104 -74c0 -57 50 -66 139 -85
c104 -21 191 -43 191 -163c0 -104 -84 -157 -204 -157zM206 598l51 127h100l-82 -127h-69z" />
    <glyph glyph-name="Scircumflex" unicode="&#x15c;" horiz-adv-x="626" 
d="M327 -14c-200 0 -297 111 -305 256h88c12 -123 86 -184 221 -184c100 0 170 45 170 134c0 100 -86 120 -214 149c-125 27 -234 64 -234 199c0 117 98 189 243 189c180 0 252 -91 271 -223h-85c-13 103 -79 153 -184 153c-97 0 -161 -40 -161 -115c0 -81 79 -104 187 -126
c139 -29 266 -62 266 -223c0 -133 -109 -209 -263 -209zM167 757l93 106h92l89 -106h-87l-49 63h-2l-51 -63h-85z" />
    <glyph glyph-name="scircumflex" unicode="&#x15d;" horiz-adv-x="478" 
d="M251 -15c-143 0 -221 66 -229 183h83c11 -90 72 -115 148 -115c85 0 120 37 120 85c0 60 -39 72 -135 93c-101 21 -193 41 -193 155c0 87 65 142 186 142c129 0 191 -61 203 -162h-83c-8 68 -45 98 -122 98c-75 0 -104 -33 -104 -74c0 -57 50 -66 139 -85
c104 -21 191 -43 191 -163c0 -104 -84 -157 -204 -157zM101 602l93 106h92l89 -106h-87l-49 63h-2l-51 -63h-85z" />
    <glyph glyph-name="Scedilla" unicode="&#x15e;" horiz-adv-x="626" 
d="M298 -191c-49 0 -83 13 -107 29l16 29c21 -9 47 -15 72 -15c33 0 58 9 58 32c0 19 -13 28 -38 28c-19 0 -29 -3 -41 -7l-16 24l58 58c-184 11 -270 116 -278 255h88c12 -123 86 -184 221 -184c100 0 170 45 170 134c0 100 -86 120 -214 149c-125 27 -234 64 -234 199
c0 117 98 189 243 189c180 0 252 -91 271 -223h-85c-13 103 -79 153 -184 153c-97 0 -161 -40 -161 -115c0 -81 79 -104 187 -126c139 -29 266 -62 266 -223c0 -127 -97 -200 -237 -208l-43 -36v-2c37 5 92 -10 92 -64c0 -48 -43 -76 -104 -76z" />
    <glyph glyph-name="scedilla" unicode="&#x15f;" horiz-adv-x="478" 
d="M225 -191c-49 0 -83 13 -107 29l16 29c21 -9 47 -15 72 -15c33 0 58 9 58 32c0 19 -13 28 -38 28c-19 0 -29 -3 -41 -7l-16 24l56 57c-127 7 -196 73 -203 182h83c11 -90 72 -115 148 -115c85 0 120 37 120 85c0 60 -39 72 -135 93c-101 21 -193 41 -193 155
c0 87 65 142 186 142c129 0 191 -61 203 -162h-83c-8 68 -45 98 -122 98c-75 0 -104 -33 -104 -74c0 -57 50 -66 139 -85c104 -21 191 -43 191 -163c0 -96 -72 -148 -176 -156l-42 -35v-2c37 5 92 -10 92 -64c0 -48 -43 -76 -104 -76z" />
    <glyph glyph-name="uni0162" unicode="&#x162;" horiz-adv-x="610" 
d="M22 636v79h566v-79h-238v-636h-90v636h-238zM262 -228v38c23 7 40 18 40 57h-39v89h85v-89c0 -67 -37 -88 -86 -95z" />
    <glyph glyph-name="uni0163" unicode="&#x163;" horiz-adv-x="307" 
d="M22 451v66h75v163h81v-163h100v-66h-100v-336c0 -36 19 -48 52 -48c16 0 34 4 43 7h3v-70c-19 -4 -41 -7 -65 -7c-67 0 -114 27 -114 100v354h-75zM132 -228v38c23 7 40 18 40 57h-39v89h85v-89c0 -67 -37 -88 -86 -95z" />
    <glyph glyph-name="uni021A" unicode="&#x21a;" horiz-adv-x="610" 
d="M22 636v79h566v-79h-238v-636h-90v636h-238zM262 -228v38c23 7 40 18 40 57h-39v89h85v-89c0 -67 -37 -88 -86 -95z" />
    <glyph glyph-name="uni021B" unicode="&#x21b;" horiz-adv-x="307" 
d="M22 451v66h75v163h81v-163h100v-66h-100v-336c0 -36 19 -48 52 -48c16 0 34 4 43 7h3v-70c-19 -4 -41 -7 -65 -7c-67 0 -114 27 -114 100v354h-75zM132 -228v38c23 7 40 18 40 57h-39v89h85v-89c0 -67 -37 -88 -86 -95z" />
    <glyph glyph-name="Tcaron" unicode="&#x164;" horiz-adv-x="610" 
d="M22 636v79h566v-79h-238v-636h-90v636h-238zM257 757l-89 106h87l49 -63h2l51 63h85l-93 -106h-92z" />
    <glyph glyph-name="tcaron" unicode="&#x165;" horiz-adv-x="307" 
d="M22 451v66h75v163h81v-163h100v-66h-100v-336c0 -36 19 -48 52 -48c16 0 34 4 43 7h3v-70c-19 -4 -41 -7 -65 -7c-67 0 -114 27 -114 100v354h-75zM325 715v-72c0 -51 -34 -77 -85 -82v38c27 6 40 21 40 44h-40v72h85z" />
    <glyph glyph-name="Tbar" unicode="&#x166;" horiz-adv-x="610" 
d="M104 346v68h156v222h-238v79h566v-79h-238v-222h156v-68h-156v-346h-90v346h-156z" />
    <glyph glyph-name="tbar" unicode="&#x167;" horiz-adv-x="307" 
d="M22 301v66h75v84h-75v66h75v163h81v-163h100v-66h-100v-84h100v-66h-100v-186c0 -36 19 -48 52 -48c16 0 34 4 43 7h3v-70c-19 -4 -41 -7 -65 -7c-67 0 -114 27 -114 100v204h-75z" />
    <glyph glyph-name="Utilde" unicode="&#x168;" horiz-adv-x="658" 
d="M329 -11c-156 0 -274 69 -274 242v484h90v-475c0 -123 68 -174 187 -174c113 0 181 51 181 174v475h90v-484c0 -173 -122 -242 -274 -242zM393 760c-47 0 -93 32 -120 32c-15 0 -22 -11 -23 -30h-60c5 57 30 92 77 92c53 0 80 -32 117 -32c19 0 24 14 27 30h58
c-3 -51 -24 -92 -76 -92z" />
    <glyph glyph-name="utilde" unicode="&#x169;" horiz-adv-x="520" 
d="M465 0h-81v71h-2c-37 -51 -80 -83 -156 -83c-107 0 -174 63 -174 171v358h81v-356c0 -68 43 -106 116 -106c83 0 135 62 135 144v318h81v-517zM326 601c-47 0 -93 32 -120 32c-15 0 -22 -11 -23 -30h-60c5 57 30 92 77 92c53 0 80 -32 117 -32c19 0 24 14 27 30h58
c-3 -51 -24 -92 -76 -92z" />
    <glyph glyph-name="Umacron" unicode="&#x16a;" horiz-adv-x="658" 
d="M329 -11c-156 0 -274 69 -274 242v484h90v-475c0 -123 68 -174 187 -174c113 0 181 51 181 174v475h90v-484c0 -173 -122 -242 -274 -242zM200 760v67h258v-67h-258z" />
    <glyph glyph-name="umacron" unicode="&#x16b;" horiz-adv-x="520" 
d="M465 0h-81v71h-2c-37 -51 -80 -83 -156 -83c-107 0 -174 63 -174 171v358h81v-356c0 -68 43 -106 116 -106c83 0 135 62 135 144v318h81v-517zM133 622v67h258v-67h-258z" />
    <glyph glyph-name="Ubreve" unicode="&#x16c;" horiz-adv-x="658" 
d="M329 -11c-156 0 -274 69 -274 242v484h90v-475c0 -123 68 -174 187 -174c113 0 181 51 181 174v475h90v-484c0 -173 -122 -242 -274 -242zM329 759c-67 0 -124 44 -127 111h60c7 -31 26 -49 66 -49s63 18 70 49h58c-3 -60 -52 -111 -127 -111z" />
    <glyph glyph-name="ubreve" unicode="&#x16d;" horiz-adv-x="520" 
d="M465 0h-81v71h-2c-37 -51 -80 -83 -156 -83c-107 0 -174 63 -174 171v358h81v-356c0 -68 43 -106 116 -106c83 0 135 62 135 144v318h81v-517zM262 604c-67 0 -124 44 -127 111h60c7 -31 26 -49 66 -49s63 18 70 49h58c-3 -60 -52 -111 -127 -111z" />
    <glyph glyph-name="Uring" unicode="&#x16e;" horiz-adv-x="658" 
d="M329 -11c-156 0 -274 69 -274 242v484h90v-475c0 -123 68 -174 187 -174c113 0 181 51 181 174v475h90v-484c0 -173 -122 -242 -274 -242zM329 746c-48 0 -87 37 -87 85s39 85 87 85s87 -37 87 -85s-39 -85 -87 -85zM329 781c28 0 47 22 47 50s-19 50 -47 50
s-47 -22 -47 -50s19 -50 47 -50z" />
    <glyph glyph-name="uring" unicode="&#x16f;" horiz-adv-x="520" 
d="M465 0h-81v71h-2c-37 -51 -80 -83 -156 -83c-107 0 -174 63 -174 171v358h81v-356c0 -68 43 -106 116 -106c83 0 135 62 135 144v318h81v-517zM262 559c-48 0 -87 37 -87 85s39 85 87 85s87 -37 87 -85s-39 -85 -87 -85zM262 594c28 0 47 22 47 50s-19 50 -47 50
s-47 -22 -47 -50s19 -50 47 -50z" />
    <glyph glyph-name="Uhungarumlaut" unicode="&#x170;" horiz-adv-x="658" 
d="M329 -11c-156 0 -274 69 -274 242v484h90v-475c0 -123 68 -174 187 -174c113 0 181 51 181 174v475h90v-484c0 -173 -122 -242 -274 -242zM372 753l31 127h82l-52 -127h-61zM242 753l31 127h82l-52 -127h-61z" />
    <glyph glyph-name="uhungarumlaut" unicode="&#x171;" horiz-adv-x="520" 
d="M465 0h-81v71h-2c-37 -51 -80 -83 -156 -83c-107 0 -174 63 -174 171v358h81v-356c0 -68 43 -106 116 -106c83 0 135 62 135 144v318h81v-517zM300 598l31 127h82l-52 -127h-61zM170 598l31 127h82l-52 -127h-61z" />
    <glyph glyph-name="Uogonek" unicode="&#x172;" horiz-adv-x="658" 
d="M332 -11h-3c-156 0 -274 69 -274 242v484h90v-475c0 -123 68 -174 187 -174c113 0 181 51 181 174v475h90v-484c0 -111 -49 -174 -126 -213c-81 -40 -115 -58 -115 -98c0 -23 13 -34 40 -34c14 0 26 2 37 7h3v-56c-13 -4 -31 -9 -55 -9c-67 0 -101 32 -101 79
c0 35 22 63 46 82z" />
    <glyph glyph-name="uogonek" unicode="&#x173;" horiz-adv-x="520" 
d="M425 -172c-67 0 -101 32 -101 79c0 40 31 74 60 93v71h-2c-37 -51 -80 -83 -156 -83c-107 0 -174 63 -174 171v358h81v-356c0 -68 43 -106 116 -106c83 0 135 62 135 144v318h81v-513c-37 -27 -65 -56 -65 -84c0 -23 13 -34 40 -34c14 0 26 2 37 7h3v-56
c-13 -4 -31 -9 -55 -9z" />
    <glyph glyph-name="Wcircumflex" unicode="&#x174;" horiz-adv-x="914" 
d="M199 0l-185 715h94l113 -465c7 -24 13 -55 18 -79l9 -42h2c3 15 7 29 10 44c7 25 13 55 20 79l129 463h97l125 -463c7 -24 12 -55 19 -80c3 -15 7 -29 10 -43h2c3 15 7 29 10 44c7 25 11 54 18 77l119 465h91l-199 -715h-86l-131 504c-7 21 -12 47 -17 70l-9 39h-2
l-9 -39c-5 -23 -11 -49 -18 -70l-140 -504h-90zM320 757l93 106h92l89 -106h-87l-49 63h-2l-51 -63h-85z" />
    <glyph glyph-name="wcircumflex" unicode="&#x175;" horiz-adv-x="734" 
d="M168 0l-164 517h87l91 -319c7 -23 11 -49 18 -72c3 -13 6 -26 10 -39h2l9 39c5 23 10 49 17 70l87 321h85l84 -321c5 -21 12 -47 17 -70c3 -13 5 -26 8 -39h2c3 13 7 26 10 39c7 23 12 49 19 72l96 319h84l-169 -517h-83l-86 313c-7 21 -12 47 -17 70c-3 13 -5 25 -8 38
h-2c-3 -13 -6 -25 -9 -38c-5 -23 -10 -49 -17 -70l-87 -313h-84zM230 602l93 106h92l89 -106h-87l-49 63h-2l-51 -63h-85z" />
    <glyph glyph-name="Ycircumflex" unicode="&#x176;" horiz-adv-x="631" 
d="M269 0v303l-259 412h100l205 -340h2l208 340h96l-262 -414v-301h-90zM178 757l93 106h92l89 -106h-87l-49 63h-2l-51 -63h-85z" />
    <glyph glyph-name="ycircumflex" unicode="&#x177;" horiz-adv-x="489" 
d="M121 -171c-31 0 -50 2 -73 11v72h4c11 -7 28 -11 55 -11c35 0 57 12 77 63l20 51l-202 502h88l122 -322c8 -23 16 -47 23 -67c4 -12 8 -23 12 -34h2c3 11 7 22 11 34c7 20 15 44 23 67l118 322h86l-221 -559c-43 -106 -81 -129 -145 -129zM112 602l93 106h92l89 -106h-87
l-49 63h-2l-51 -63h-85z" />
    <glyph glyph-name="Zacute" unicode="&#x179;" 
d="M30 0v86l428 550v3h-403v76h514v-70l-434 -561v-3h451v-81h-556zM271 753l51 121h100l-82 -121h-69z" />
    <glyph glyph-name="zacute" unicode="&#x17a;" horiz-adv-x="471" 
d="M34 0v64l288 379v3h-271v71h384v-48l-297 -392v-3h308v-74h-412zM211 598l51 127h100l-82 -127h-69z" />
    <glyph glyph-name="Zdotaccent" unicode="&#x17b;" 
d="M30 0v86l428 550v3h-403v76h514v-70l-434 -561v-3h451v-81h-556zM269 760v95h78v-95h-78z" />
    <glyph glyph-name="zdotaccent" unicode="&#x17c;" horiz-adv-x="471" 
d="M34 0v64l288 379v3h-271v71h384v-48l-297 -392v-3h308v-74h-412zM203 615v100h81v-100h-81z" />
    <glyph glyph-name="Zcaron" unicode="&#x17d;" 
d="M30 0v86l428 550v3h-403v76h514v-70l-434 -561v-3h451v-81h-556zM260 757l-89 106h87l49 -63h2l51 63h85l-93 -106h-92z" />
    <glyph glyph-name="zcaron" unicode="&#x17e;" horiz-adv-x="471" 
d="M34 0v64l288 379v3h-271v71h384v-48l-297 -392v-3h308v-74h-412zM195 602l-89 106h87l49 -63h2l51 63h85l-93 -106h-92z" />
    <glyph glyph-name="uni0218" unicode="&#x218;" horiz-adv-x="626" 
d="M327 -14c-200 0 -297 111 -305 256h88c12 -123 86 -184 221 -184c100 0 170 45 170 134c0 100 -86 120 -214 149c-125 27 -234 64 -234 199c0 117 98 189 243 189c180 0 252 -91 271 -223h-85c-13 103 -79 153 -184 153c-97 0 -161 -40 -161 -115c0 -81 79 -104 187 -126
c139 -29 266 -62 266 -223c0 -133 -109 -209 -263 -209zM261 -228v38c23 7 40 18 40 57h-39v89h85v-89c0 -67 -37 -88 -86 -95z" />
    <glyph glyph-name="uni0219" unicode="&#x219;" horiz-adv-x="478" 
d="M251 -15c-143 0 -221 66 -229 183h83c11 -90 72 -115 148 -115c85 0 120 37 120 85c0 60 -39 72 -135 93c-101 21 -193 41 -193 155c0 87 65 142 186 142c129 0 191 -61 203 -162h-83c-8 68 -45 98 -122 98c-75 0 -104 -33 -104 -74c0 -57 50 -66 139 -85
c104 -21 191 -43 191 -163c0 -104 -84 -157 -204 -157zM195 -228v38c23 7 40 18 40 57h-39v89h85v-89c0 -67 -37 -88 -86 -95z" />
    <glyph glyph-name="caron" unicode="&#x2c7;" horiz-adv-x="500" 
d="M202 602l-89 106h87l49 -63h2l51 63h85l-93 -106h-92z" />
    <glyph glyph-name="uni02C9" unicode="&#x2c9;" horiz-adv-x="500" 
d="M121 622v67h258v-67h-258z" />
    <glyph glyph-name="breve" unicode="&#x2d8;" horiz-adv-x="500" 
d="M250 604c-67 0 -124 44 -127 111h60c7 -31 26 -49 66 -49s63 18 70 49h58c-3 -60 -52 -111 -127 -111z" />
    <glyph glyph-name="dotaccent" unicode="&#x2d9;" horiz-adv-x="500" 
d="M209 615v100h81v-100h-81z" />
    <glyph glyph-name="ring" unicode="&#x2da;" horiz-adv-x="509" 
d="M254 559c-48 0 -87 37 -87 85s39 85 87 85s87 -37 87 -85s-39 -85 -87 -85zM254 594c28 0 47 22 47 50s-19 50 -47 50s-47 -22 -47 -50s19 -50 47 -50z" />
    <glyph glyph-name="ogonek" unicode="&#x2db;" horiz-adv-x="500" 
d="M229 -172c-67 0 -101 32 -101 79c0 45 39 77 72 93h62c-31 -25 -58 -52 -58 -80c0 -23 13 -34 40 -34c14 0 26 2 37 7h3v-56c-13 -4 -31 -9 -55 -9z" />
    <glyph glyph-name="hungarumlaut" unicode="&#x2dd;" horiz-adv-x="500" 
d="M267 598l31 127h82l-52 -127h-61zM137 598l31 127h82l-52 -127h-61z" />
    <glyph glyph-name="uni0394" unicode="&#x394;" horiz-adv-x="648" 
d="M19 0v80l254 635h101l255 -636v-79h-610zM288 535l-181 -462h430l-180 462c-8 20 -15 45 -22 65c-3 12 -7 24 -11 36h-2c-4 -12 -8 -24 -11 -36c-7 -20 -15 -45 -23 -65z" />
    <glyph glyph-name="uni03A9" unicode="&#x3a9;" horiz-adv-x="740" 
d="M562 77v-2h132v-75h-283v75c140 19 197 145 197 300c0 168 -86 278 -238 278s-238 -110 -238 -278c0 -155 59 -281 197 -300v-75h-283v75h131v2c-91 56 -137 158 -137 295c0 213 134 359 330 359s330 -146 330 -359c0 -137 -47 -239 -138 -295z" />
    <glyph glyph-name="uni03BC" unicode="&#x3bc;" horiz-adv-x="523" 
d="M55 -166v683h81v-356c0 -68 43 -106 116 -106c83 0 135 62 135 144v318h81v-517h-81v71h-2c-37 -51 -79 -83 -151 -83c-43 0 -75 12 -96 35h-2v-189h-81z" />
    <glyph glyph-name="pi" unicode="&#x3c0;" horiz-adv-x="612" 
d="M22 451v66h561v-66h-93v-336c0 -36 20 -48 52 -48c16 0 27 4 36 7h3v-70c-16 -4 -38 -7 -59 -7c-63 0 -113 25 -113 100v354h-226v-451h-81v451h-80z" />
    <glyph glyph-name="fraction" unicode="&#x2044;" horiz-adv-x="169" 
d="M-178 0l453 715h72l-453 -715h-72z" />
    <glyph glyph-name="uni2113" unicode="&#x2113;" horiz-adv-x="337" 
d="M68 270v324c0 83 48 129 124 129c73 0 116 -47 116 -152c0 -170 -68 -268 -159 -324v-103c0 -57 21 -79 66 -79c35 0 57 12 77 23h3v-67c-19 -15 -53 -24 -89 -24c-81 0 -138 38 -138 142v68c-19 -7 -35 -12 -54 -17v60c19 7 37 12 54 20zM201 385c27 47 38 100 38 187
c0 68 -17 88 -46 88c-28 0 -44 -19 -44 -66v-274c20 18 37 40 52 65z" />
    <glyph glyph-name="Omega" unicode="&#x2126;" horiz-adv-x="740" 
d="M562 77v-2h132v-75h-283v75c140 19 197 145 197 300c0 168 -86 278 -238 278s-238 -110 -238 -278c0 -155 59 -281 197 -300v-75h-283v75h131v2c-91 56 -137 158 -137 295c0 213 134 359 330 359s330 -146 330 -359c0 -137 -47 -239 -138 -295z" />
    <glyph glyph-name="estimated" unicode="&#x212e;" horiz-adv-x="621" 
d="M591 301h-431v-203c37 -39 90 -61 167 -61c117 0 177 56 209 149h51c-27 -114 -112 -197 -260 -197c-189 0 -298 132 -298 320c0 187 121 318 293 318c72 0 129 -22 173 -59c73 -63 97 -151 96 -267zM322 582c-72 0 -127 -25 -162 -62v-175h303v188
c-31 31 -78 49 -141 49z" />
    <glyph glyph-name="partialdiff" unicode="&#x2202;" horiz-adv-x="549" 
d="M414 397c-19 152 -108 228 -257 253v72c269 -32 348 -204 348 -436c0 -148 -78 -300 -249 -300c-136 0 -212 93 -212 212c0 147 92 261 237 261c51 0 102 -21 133 -62zM257 53c96 0 162 99 162 198c0 81 -53 141 -134 141c-93 0 -158 -78 -158 -194
c0 -83 44 -145 130 -145z" />
    <glyph glyph-name="Delta" unicode="&#x2206;" horiz-adv-x="648" 
d="M19 0v80l254 635h101l255 -636v-79h-610zM288 535l-181 -462h430l-180 462c-8 20 -15 45 -22 65c-3 12 -7 24 -11 36h-2c-4 -12 -8 -24 -11 -36c-7 -20 -15 -45 -23 -65z" />
    <glyph glyph-name="product" unicode="&#x220f;" horiz-adv-x="703" 
d="M71 715h561v-815h-90v736h-381v-736h-90v815z" />
    <glyph glyph-name="summation" unicode="&#x2211;" horiz-adv-x="616" 
d="M578 -100h-538v91l282 324v2l-282 312v86h528v-79h-423v-2l273 -295v-40l-280 -314v-2h440v-83z" />
    <glyph glyph-name="minus" unicode="&#x2212;" horiz-adv-x="560" 
d="M53 294v64h454v-64h-454z" />
    <glyph glyph-name="uni2215" unicode="&#x2215;" horiz-adv-x="169" 
d="M-178 0l453 715h72l-453 -715h-72z" />
    <glyph glyph-name="uni2219" unicode="&#x2219;" horiz-adv-x="185" 
d="M47 263v99h97v-99h-97z" />
    <glyph glyph-name="radical" unicode="&#x221a;" horiz-adv-x="579" 
d="M14 239v74h130l79 -206c8 -23 19 -52 27 -77c5 -15 9 -29 14 -44h2l12 42c7 24 15 54 23 79l184 608h84l-256 -815h-92l-133 339h-74z" />
    <glyph glyph-name="infinity" unicode="&#x221e;" horiz-adv-x="715" 
d="M186 131c-100 0 -151 81 -151 174c0 92 51 173 151 173c79 0 134 -53 174 -117c40 64 92 117 168 117c92 0 152 -70 152 -173c0 -104 -60 -174 -152 -174c-76 0 -128 53 -168 117c-40 -64 -95 -117 -174 -117zM192 406c-56 0 -78 -45 -78 -101c0 -57 22 -102 78 -102
c54 0 92 49 123 101c-32 53 -69 102 -123 102zM522 203c56 0 79 45 79 102c0 56 -23 101 -79 101c-51 0 -85 -49 -117 -102c31 -52 67 -101 117 -101z" />
    <glyph glyph-name="integral" unicode="&#x222b;" horiz-adv-x="337" 
d="M117 -34v638c0 99 59 137 135 137c29 0 53 -3 73 -9v-72h-3c-11 4 -29 9 -56 9c-45 0 -68 -23 -68 -70v-638c0 -99 -59 -137 -135 -137c-31 0 -53 3 -73 10v72h3c11 -4 29 -10 56 -10c45 0 68 23 68 70z" />
    <glyph glyph-name="approxequal" unicode="&#x2248;" horiz-adv-x="560" 
d="M399 337c-80 0 -198 41 -254 41c-31 0 -43 -18 -44 -49h-65c3 76 44 115 108 115c80 0 197 -41 250 -41c32 0 47 18 48 49h65c-3 -71 -36 -115 -108 -115zM399 178c-80 0 -198 41 -254 41c-31 0 -43 -18 -44 -49h-65c3 76 44 115 108 115c80 0 197 -41 250 -41
c32 0 47 18 48 49h65c-3 -71 -36 -115 -108 -115z" />
    <glyph glyph-name="notequal" unicode="&#x2260;" horiz-adv-x="560" 
d="M53 369v64h251l45 96h68l-45 -96h135v-64h-164l-52 -111h216v-64h-245l-51 -110h-68l51 110h-141v64h170l52 111h-222z" />
    <glyph glyph-name="lessequal" unicode="&#x2264;" horiz-adv-x="511" 
d="M457 107l-407 168v83l407 168v-73l-343 -134v-2l343 -136v-74zM50 0v64h407v-64h-407z" />
    <glyph glyph-name="greaterequal" unicode="&#x2265;" horiz-adv-x="511" 
d="M461 275l-407 -168v74l343 136v2l-343 134v73l407 -168v-83zM461 64v-64h-407v64h407z" />
    <glyph glyph-name="lozenge" unicode="&#x25ca;" horiz-adv-x="546" 
d="M318 715l202 -358l-201 -357h-91l-202 358l201 357h91zM271 636l-151 -276l153 -281h2l150 275l-152 282h-2z" />
    <glyph glyph-name="fi" unicode="&#xfb01;" horiz-adv-x="475" 
d="M22 451v66h71v83c0 89 50 121 137 121c17 0 30 -1 41 -2v-69c-15 1 -18 1 -26 1c-52 0 -71 -12 -71 -55v-79h96v-66h-96v-451h-81v451h-71zM339 0v517h81v-517h-81zM339 615v100h81v-100h-81z" />
    <glyph glyph-name="fl" unicode="&#xfb02;" horiz-adv-x="481" 
d="M342 0v715h81v-715h-81zM22 451v66h71v83c0 89 50 121 137 121c17 0 30 -1 41 -2v-69c-15 1 -18 1 -26 1c-52 0 -71 -12 -71 -55v-79h96v-66h-96v-451h-81v451h-71z" />
    </font>
</defs>
</svg>
